<svg xmlns="http://www.w3.org/2000/svg" xmlns:xlink="http://www.w3.org/1999/xlink" xmlns:lucid="lucid" width="840" height="1540"><g transform="translate(-7.812548530957542 1800)" lucid:page-tab-id="y-XMXAQW7QS6"><path d="M0-2000h1000V0H0z" fill="#fff"/><path d="M7.8-1368a12 12 0 0 1 12-12h816a12 12 0 0 1 12 12v1096a12 12 0 0 1-12 12h-816a12 12 0 0 1-12-12z" stroke="#000" stroke-width="4" fill="#fff"/><path d="M7.8-1414.82a12 12 0 0 1 12-12h60.45a12 12 0 0 1 12 12v10.82a12 12 0 0 1-12 12H19.8a12 12 0 0 1-12-12z" stroke="#000" stroke-width="4"/><use xlink:href="#a" transform="matrix(1,0,0,1,15.812548530957542,-1418.8216145833333) translate(0 15.158637152777779)"/><path d="M100-1088a12 12 0 0 1 12-12h631.63a12 12 0 0 1 12 12v776a12 12 0 0 1-12 12H112a12 12 0 0 1-12-12z" stroke="#000" stroke-width="4" fill="#fff"/><path d="M100-1134.82a12 12 0 0 1 12-12h133.07a12 12 0 0 1 12 12v10.82a12 12 0 0 1-12 12H112a12 12 0 0 1-12-12z" stroke="#000" stroke-width="4"/><use xlink:href="#b" transform="matrix(1,0,0,1,108,-1138.8216145833335) translate(0 15.158637152777779)"/><use xlink:href="#c" transform="matrix(1,0,0,1,108,-1138.8216145833335) translate(56.77625868055555 15.158637152777779)"/><path d="M267.8-1794a6 6 0 0 1 6-6h308a6 6 0 0 1 6 6v57.16a6 6 0 0 1-6 6h-308a6 6 0 0 1-6-6z" fill="none"/><use xlink:href="#d" transform="matrix(1,0,0,1,272.81254853095743,-1795) translate(7.213541666666686 38.083767361111114)"/><use xlink:href="#e" transform="matrix(1,0,0,1,272.81254853095743,-1795) translate(116.31727430555557 38.083767361111114)"/><use xlink:href="#f" transform="matrix(1,0,0,1,272.81254853095743,-1795) translate(148.82595486111114 38.083767361111114)"/><path d="M340-1598.7a6 6 0 0 1 6-6h163.63a6 6 0 0 1 6 6v117.4a6 6 0 0 1-6 6H346a6 6 0 0 1-6-6z" stroke="#000" stroke-width="2" fill="#fff"/><use xlink:href="#g" transform="matrix(1,0,0,1,345,-1599.69140625) translate(50.47829861111111 17.69097222222222)"/><use xlink:href="#h" transform="matrix(1,0,0,1,345,-1599.69140625) translate(52.319661458333336 39.197916666666664)"/><use xlink:href="#i" transform="matrix(1,0,0,1,345,-1599.69140625) translate(83 58.55729166666667)"/><use xlink:href="#j" transform="matrix(1,0,0,1,345,-1599.69140625) translate(10.099609375 77.91666666666667)"/><use xlink:href="#k" transform="matrix(1,0,0,1,345,-1599.69140625) translate(57.70377604166667 77.91666666666667)"/><use xlink:href="#l" transform="matrix(1,0,0,1,345,-1599.69140625) translate(125.49674479166667 77.91666666666667)"/><use xlink:href="#m" transform="matrix(1,0,0,1,345,-1599.69140625) translate(144.89778645833334 77.91666666666667)"/><use xlink:href="#n" transform="matrix(1,0,0,1,345,-1599.69140625) translate(27.55729166666667 97.27604166666667)"/><use xlink:href="#o" transform="matrix(1,0,0,1,345,-1599.69140625) translate(79.78385416666667 97.27604166666667)"/><use xlink:href="#p" transform="matrix(1,0,0,1,345,-1599.69140625) translate(83 116.63541666666667)"/><path d="M471.72-1640c0 22.1-19.66 40-43.9 40-24.26 0-43.9-17.9-43.9-40s19.64-40 43.9-40c24.24 0 43.9 17.9 43.9 40zM347.8-1334a6 6 0 0 1 6-6h148a6 6 0 0 1 6 6v115.88a6 6 0 0 1-6 6h-148a6 6 0 0 1-6-6z" stroke="#000" stroke-width="2" fill="#fff"/><use xlink:href="#q" transform="matrix(1,0,0,1,352.81254853095754,-1335) translate(12.290390625 16.6778125)"/><use xlink:href="#r" transform="matrix(1,0,0,1,352.81254853095754,-1335) translate(103.183359375 16.6778125)"/><use xlink:href="#s" transform="matrix(1,0,0,1,352.81254853095754,-1335) translate(9.156901041666657 37.683299479166664)"/><use xlink:href="#t" transform="matrix(1,0,0,1,352.81254853095754,-1335) translate(54.716796875 37.683299479166664)"/><use xlink:href="#u" transform="matrix(1,0,0,1,352.81254853095754,-1335) translate(65.90169270833334 37.683299479166664)"/><use xlink:href="#v" transform="matrix(1,0,0,1,352.81254853095754,-1335) translate(75 57.042674479166664)"/><use xlink:href="#w" transform="matrix(1,0,0,1,352.81254853095754,-1335) translate(42.333984375 76.40204947916666)"/><use xlink:href="#x" transform="matrix(1,0,0,1,352.81254853095754,-1335) translate(89.912109375 76.40204947916666)"/><use xlink:href="#y" transform="matrix(1,0,0,1,352.81254853095754,-1335) translate(3.8444010416666714 95.76142447916668)"/><use xlink:href="#z" transform="matrix(1,0,0,1,352.81254853095754,-1335) translate(107.58138020833334 95.76142447916668)"/><use xlink:href="#m" transform="matrix(1,0,0,1,352.81254853095754,-1335) translate(135.15299479166669 95.76142447916668)"/><use xlink:href="#n" transform="matrix(1,0,0,1,352.81254853095754,-1335) translate(28.44075520833333 115.12079947916668)"/><use xlink:href="#A" transform="matrix(1,0,0,1,352.81254853095754,-1335) translate(80.66731770833333 115.12079947916668)"/><path d="M347.8-1054a6 6 0 0 1 6-6h148a6 6 0 0 1 6 6v108a6 6 0 0 1-6 6h-148a6 6 0 0 1-6-6z" stroke="#000" stroke-width="2" fill="#fff"/><use xlink:href="#B" transform="matrix(1,0,0,1,352.81254853095754,-1055) translate(23.1493212890625 51.0215625)"/><use xlink:href="#C" transform="matrix(1,0,0,1,352.81254853095754,-1055) translate(55.1580322265625 51.0215625)"/><use xlink:href="#D" transform="matrix(1,0,0,1,352.81254853095754,-1055) translate(50.73567708333333 72.02704947916666)"/><path d="M428.3-1357.38h-.96v-9.7h.95zm0-19.4h-.96v-19.4h.95zm0-29.1h-.96v-16.05h.95zm0-32.2h-.96v-16.32h.95zm0-26.03h-.96v-9.7h.95z" stroke="#3a414a" stroke-width=".05" fill="#3a414a"/><path d="M428.3-1473.8h-.96v-.5h.95z" fill="#3a414a"/><path stroke="#3a414a" stroke-width=".05" fill="#3a414a"/><path d="M427.8-1342.62l-4.62-14.26h9.27z" fill="#3a414a"/><path d="M427.8-1341.08l-5.28-16.28h10.58zm-3.97-15.33l3.98 12.25 4-12.26z" stroke="#3a414a" stroke-width=".05" fill="#3a414a"/><use xlink:href="#E" transform="matrix(1,0,0,1,267.83859019762417,-1438.06640625) translate(0.0049999999999954525 12.916666666666668)"/><use xlink:href="#F" transform="matrix(1,0,0,1,267.83859019762417,-1438.06640625) translate(59.627395833333324 12.916666666666668)"/><use xlink:href="#G" transform="matrix(1,0,0,1,267.83859019762417,-1438.06640625) translate(99.77713541666665 12.916666666666668)"/><use xlink:href="#H" transform="matrix(1,0,0,1,267.83859019762417,-1438.06640625) translate(154.64041666666665 12.916666666666668)"/><use xlink:href="#I" transform="matrix(1,0,0,1,267.83859019762417,-1438.06640625) translate(212.9346875 12.916666666666668)"/><use xlink:href="#J" transform="matrix(1,0,0,1,267.83859019762417,-1438.06640625) translate(224.17817708333334 12.916666666666668)"/><use xlink:href="#K" transform="matrix(1,0,0,1,267.83859019762417,-1438.06640625) translate(269.4255729166667 12.916666666666668)"/><path d="M428.3-1077.38h-.96v-11.1h.95zm0-22.2h-.96v-22.22h.95zm0-33.32h-.96v-12.35h.95zm0-47.85h-.96v-7.67h.95zm0-18.77h-.96v-11.1h.95z" stroke="#3a414a" stroke-width=".05" fill="#3a414a"/><path d="M428.3-1210.6h-.96v-.52h.95z" fill="#3a414a"/><path stroke="#3a414a" stroke-width=".05" fill="#3a414a"/><path d="M427.8-1062.62l-4.62-14.26h9.27z" fill="#3a414a"/><path d="M427.8-1061.08l-5.28-16.28h10.58zm-3.97-15.33l3.98 12.25 4-12.26z" stroke="#3a414a" stroke-width=".05" fill="#3a414a"/><g><use xlink:href="#L" transform="matrix(1,0,0,1,329.93494436429086,-1180.74609375) translate(0.0049999999999954525 12.916666666666668)"/><use xlink:href="#M" transform="matrix(1,0,0,1,329.93494436429086,-1180.74609375) translate(48.83963541666666 12.916666666666668)"/><use xlink:href="#N" transform="matrix(1,0,0,1,329.93494436429086,-1180.74609375) translate(101.35265625 12.916666666666668)"/><use xlink:href="#O" transform="matrix(1,0,0,1,329.93494436429086,-1180.74609375) translate(115.81880208333332 12.916666666666668)"/><use xlink:href="#P" transform="matrix(1,0,0,1,329.93494436429086,-1180.74609375) translate(140.864375 12.916666666666668)"/><use xlink:href="#Q" transform="matrix(1,0,0,1,329.93494436429086,-1180.74609375) translate(54.59484375 32.27604166666667)"/></g><path d="M428.3-825.08h-.96v-9.45h.95zm0-18.9h-.96v-18.9h.95zm0-56.7h-.96v-18.92h.95zm0-28.37h-.96v-9.45h.95z" stroke="#3a414a" stroke-width=".05" fill="#3a414a"/><path d="M428.3-938.5h-.96v-.5h.95z" fill="#3a414a"/><path stroke="#3a414a" stroke-width=".05" fill="#3a414a"/><path d="M427.8-810.3l-4.62-14.28h9.27z" fill="#3a414a"/><path d="M427.8-808.77l-5.28-16.28h10.58zm-3.97-15.33l3.98 12.25 4-12.25z" stroke="#3a414a" stroke-width=".05" fill="#3a414a"/><g><use xlink:href="#R" transform="matrix(1,0,0,1,255.58924123929086,-900.3512821612242) translate(0.0049999999999954525 12.916666666666668)"/><use xlink:href="#S" transform="matrix(1,0,0,1,255.58924123929086,-900.3512821612242) translate(44.46463541666667 12.916666666666668)"/><use xlink:href="#M" transform="matrix(1,0,0,1,255.58924123929086,-900.3512821612242) translate(58.93078125 12.916666666666668)"/><use xlink:href="#T" transform="matrix(1,0,0,1,255.58924123929086,-900.3512821612242) translate(111.44380208333334 12.916666666666668)"/><use xlink:href="#U" transform="matrix(1,0,0,1,255.58924123929086,-900.3512821612242) translate(122.68078125000001 12.916666666666668)"/><use xlink:href="#V" transform="matrix(1,0,0,1,255.58924123929086,-900.3512821612242) translate(144.6925 12.916666666666668)"/><use xlink:href="#W" transform="matrix(1,0,0,1,255.58924123929086,-900.3512821612242) translate(210.79276041666665 12.916666666666668)"/><use xlink:href="#U" transform="matrix(1,0,0,1,255.58924123929086,-900.3512821612242) translate(230.48026041666665 12.916666666666668)"/><use xlink:href="#X" transform="matrix(1,0,0,1,255.58924123929086,-900.3512821612242) translate(252.49197916666665 12.916666666666668)"/><use xlink:href="#Q" transform="matrix(1,0,0,1,255.58924123929086,-900.3512821612242) translate(128.94054687500002 32.27604166666667)"/></g><path d="M315.63-454a6 6 0 0 1 6-6H534a6 6 0 0 1 6 6v108a6 6 0 0 1-6 6H321.62a6 6 0 0 1-6-6z" stroke="#000" stroke-width="2" fill="#fff"/><g><use xlink:href="#Y" transform="matrix(1,0,0,1,320.6250970619148,-455) translate(50.2627685546875 51.0215625)"/><use xlink:href="#Z" transform="matrix(1,0,0,1,320.6250970619148,-455) translate(94.3687451171875 51.0215625)"/><use xlink:href="#aa" transform="matrix(1,0,0,1,320.6250970619148,-455) translate(118.8575341796875 51.0215625)"/><use xlink:href="#ab" transform="matrix(1,0,0,1,320.6250970619148,-455) translate(66.21744791666666 72.02704947916666)"/></g><path d="M428.3-477.4h-.96v-8.1h.95zm0-16.24h-.96v-16.26h.95zm0-57.44h-.96v-18.18h.95zm0-28.95h-.96v-10.78h.95z" stroke="#3a414a" stroke-width=".05" fill="#3a414a"/><path d="M428.3-590.8h-.96v-.5h.95z" fill="#3a414a"/><path stroke="#3a414a" stroke-width=".05" fill="#3a414a"/><path d="M427.8-462.62l-4.62-14.26h9.27z" fill="#3a414a"/><path d="M427.8-461.08l-5.28-16.28h10.58zm-3.97-15.33l3.98 12.24 4-12.25z" stroke="#3a414a" stroke-width=".05" fill="#3a414a"/><g><use xlink:href="#ac" transform="matrix(1,0,0,1,365.8171058226242,-551.0794270833335) translate(0.005000000000002558 12.916666666666668)"/><use xlink:href="#W" transform="matrix(1,0,0,1,365.8171058226242,-551.0794270833335) translate(26.840937500000003 12.916666666666668)"/><use xlink:href="#I" transform="matrix(1,0,0,1,365.8171058226242,-551.0794270833335) translate(46.5284375 12.916666666666668)"/><use xlink:href="#ad" transform="matrix(1,0,0,1,365.8171058226242,-551.0794270833335) translate(57.77192708333334 12.916666666666668)"/><use xlink:href="#ae" transform="matrix(1,0,0,1,365.8171058226242,-551.0794270833335) translate(108.34484375 12.916666666666668)"/><use xlink:href="#af" transform="matrix(1,0,0,1,365.8171058226242,-551.0794270833335) translate(28.35786458333334 32.27604166666667)"/></g><path d="M275.63-801.7a6 6 0 0 1 6-6H574a6 6 0 0 1 6 6v203.4a6 6 0 0 1-6 6H281.62a6 6 0 0 1-6-6z" stroke="#000" stroke-width="2" fill="#fff"/><path d="M307.8-774a6 6 0 0 1 6-6h148a6 6 0 0 1 6 6v108a6 6 0 0 1-6 6h-148a6 6 0 0 1-6-6z" stroke="#000" stroke-width="2" fill="#fff"/><g><use xlink:href="#ag" transform="matrix(1,0,0,1,312.81254853095754,-775.0000000000001) translate(0 12.916666666666668)"/><use xlink:href="#ah" transform="matrix(1,0,0,1,312.81254853095754,-775.0000000000001) translate(56.71223958333334 12.916666666666668)"/><use xlink:href="#ai" transform="matrix(1,0,0,1,312.81254853095754,-775.0000000000001) translate(76.21744791666667 12.916666666666668)"/></g><path d="M347.8-754a6 6 0 0 1 6-6h148a6 6 0 0 1 6 6v108a6 6 0 0 1-6 6h-148a6 6 0 0 1-6-6z" stroke="#000" stroke-width="2" fill="#fff"/><g><use xlink:href="#ag" transform="matrix(1,0,0,1,352.81254853095754,-755.0000000000001) translate(0 12.916666666666668)"/><use xlink:href="#ah" transform="matrix(1,0,0,1,352.81254853095754,-755.0000000000001) translate(56.71223958333334 12.916666666666668)"/><use xlink:href="#aj" transform="matrix(1,0,0,1,352.81254853095754,-755.0000000000001) translate(76.21744791666667 12.916666666666668)"/></g><path d="M387.8-734a6 6 0 0 1 6-6h148a6 6 0 0 1 6 6v108a6 6 0 0 1-6 6h-148a6 6 0 0 1-6-6z" stroke="#000" stroke-width="2" fill="#fff"/><g><use xlink:href="#ag" transform="matrix(1,0,0,1,392.81254853095754,-735.0000000000001) translate(0 12.916666666666668)"/><use xlink:href="#ah" transform="matrix(1,0,0,1,392.81254853095754,-735.0000000000001) translate(56.71223958333334 12.916666666666668)"/><use xlink:href="#ak" transform="matrix(1,0,0,1,392.81254853095754,-735.0000000000001) translate(76.21744791666667 12.916666666666668)"/></g><defs><path fill="#fff" d="M180 0v-1490h224l606 953c40 63 108 177 176 312-27-437-7-821-13-1265h190V0h-226C860-448 622-778 356-1262c27 476 11 792 15 1262H180" id="al"/><path fill="#fff" d="M613 24c-304 0-509-231-509-576 0-350 205-580 509-580 305 0 511 230 511 580 0 345-206 576-511 576zm0-161c226 0 329-195 329-415 0-222-103-419-329-419-223 0-326 196-326 419 0 220 103 415 326 415" id="am"/><path fill="#fff" d="M481 0L54-1118h197c107 314 236 620 325 951 87-331 217-637 324-951h197L670 0H481" id="an"/><path fill="#fff" d="M471 26C259 26 90-98 90-318c0-256 228-303 435-329 202-27 287-16 287-108 0-139-79-219-234-219-161 0-248 86-283 164l-173-57c86-203 278-265 451-265 150 0 419 46 419 395V0H815v-152h-12C765-73 660 26 471 26zm31-159c199 0 310-134 310-271v-155c-30 35-226 55-295 64-131 17-246 59-246 186 0 116 97 176 231 176" id="ao"/><path fill="#fff" d="M180 0v-1490h190v1322h690V0H180" id="ap"/><path fill="#fff" d="M158 0v-1118h180V0H158zm91-1301c-68 0-125-53-125-119s57-119 125-119c69 0 126 53 126 119s-57 119-126 119" id="aq"/><path fill="#fff" d="M338-670V0H158v-1118h173l1 207c72-158 192-221 342-221 226 0 378 139 378 422V0H872v-695c0-172-96-275-252-275-161 0-282 109-282 300" id="ar"/><path fill="#fff" d="M158 0v-1490h180v865h22l478-493h223L593-638 1096 0H865L456-523 338-412V0H158" id="as"/><g id="a"><use transform="matrix(0.007595486111111111,0,0,0.007595486111111111,0,0)" xlink:href="#al"/><use transform="matrix(0.007595486111111111,0,0,0.007595486111111111,11.719835069444445,0)" xlink:href="#am"/><use transform="matrix(0.007595486111111111,0,0,0.007595486111111111,20.743272569444443,0)" xlink:href="#an"/><use transform="matrix(0.007595486111111111,0,0,0.007595486111111111,29.40972222222222,0)" xlink:href="#ao"/><use transform="matrix(0.007595486111111111,0,0,0.007595486111111111,38.14453125,0)" xlink:href="#ap"/><use transform="matrix(0.007595486111111111,0,0,0.007595486111111111,46.940104166666664,0)" xlink:href="#aq"/><use transform="matrix(0.007595486111111111,0,0,0.007595486111111111,50.70746527777778,0)" xlink:href="#ar"/><use transform="matrix(0.007595486111111111,0,0,0.007595486111111111,59.89800347222222,0)" xlink:href="#as"/></g><path fill="#fff" d="M783 20c-382 0-661-292-661-764 0-473 279-766 661-766 302 0 548 182 601 489h-190c-42-204-217-313-411-313-268 0-476 208-476 590 0 381 209 588 476 588 195 0 369-110 411-313h190c-52 303-296 489-601 489" id="at"/><path fill="#fff" d="M338-1490V0H158v-1490h180" id="au"/><path fill="#fff" d="M537 14c-226 0-379-139-379-422v-710h180v695c0 172 97 275 253 275 160 0 281-109 281-300v-670h181V0H879v-209C806-46 684 14 537 14" id="av"/><path fill="#fff" d="M538 24C308 24 148-78 108-271l171-41c32 123 123 178 257 178 156 0 256-77 256-169 0-77-54-128-164-154l-186-44c-203-48-300-148-300-305 0-192 176-326 414-326 230 0 351 112 402 269l-163 42c-31-80-94-158-238-158-133 0-233 69-233 162 0 83 57 129 188 160l169 40c203 48 298 149 298 302 0 196-179 339-441 339" id="aw"/><path fill="#fff" d="M598-1118v154H368v674c0 100 37 144 132 144 23 0 62-6 92-12L629-6c-37 13-88 20-134 20-193 0-307-107-307-290v-688H20v-154h168v-266h180v266h230" id="ax"/><path fill="#fff" d="M628 24c-324 0-524-230-524-574 0-343 198-582 503-582 237 0 487 146 487 559v75H286c9 234 145 362 343 362 132 0 231-58 273-172l174 48C1024-91 857 24 628 24zM287-650h624c-17-190-120-322-304-322-192 0-309 151-320 322" id="ay"/><path fill="#fff" d="M158 0v-1118h174v172h12c41-113 157-188 290-188 26 0 70 2 91 3v181c-11-2-60-10-108-10-161 0-279 109-279 260V0H158" id="az"/><g id="b"><use transform="matrix(0.007595486111111111,0,0,0.007595486111111111,0,0)" xlink:href="#at"/><use transform="matrix(0.007595486111111111,0,0,0.007595486111111111,11.362847222222221,0)" xlink:href="#au"/><use transform="matrix(0.007595486111111111,0,0,0.007595486111111111,15.130208333333332,0)" xlink:href="#av"/><use transform="matrix(0.007595486111111111,0,0,0.007595486111111111,24.328342013888886,0)" xlink:href="#aw"/><use transform="matrix(0.007595486111111111,0,0,0.007595486111111111,32.5390625,0)" xlink:href="#ax"/><use transform="matrix(0.007595486111111111,0,0,0.007595486111111111,37.47612847222222,0)" xlink:href="#ay"/><use transform="matrix(0.007595486111111111,0,0,0.007595486111111111,46.545138888888886,0)" xlink:href="#az"/></g><path fill="#fff" d="M180 0v-1490h190c0 262 1 526-3 784 217-279 467-523 702-784h249L716-845 1319 0h-225L585-716 370-489V0H180" id="aA"/><path fill="#fff" d="M677 24c-213 0-288-135-325-197h-20V0H158v-1490h180v551h14c37-59 106-193 324-193 279 0 474 222 474 576 0 356-194 580-473 580zm-27-161c209 0 317-186 317-421 0-232-105-413-317-413-206 0-314 166-314 413 0 249 111 421 314 421" id="aB"/><g id="c"><use transform="matrix(0.007595486111111111,0,0,0.007595486111111111,0,0)" xlink:href="#aA"/><use transform="matrix(0.007595486111111111,0,0,0.007595486111111111,9.927300347222223,0)" xlink:href="#av"/><use transform="matrix(0.007595486111111111,0,0,0.007595486111111111,19.12543402777778,0)" xlink:href="#aB"/><use transform="matrix(0.007595486111111111,0,0,0.007595486111111111,28.650173611111114,0)" xlink:href="#ay"/><use transform="matrix(0.007595486111111111,0,0,0.007595486111111111,37.71918402777778,0)" xlink:href="#az"/><use transform="matrix(0.007595486111111111,0,0,0.007595486111111111,43.818359375,0)" xlink:href="#ar"/><use transform="matrix(0.007595486111111111,0,0,0.007595486111111111,53.00889756944444,0)" xlink:href="#ay"/><use transform="matrix(0.007595486111111111,0,0,0.007595486111111111,62.07790798611111,0)" xlink:href="#ax"/><use transform="matrix(0.007595486111111111,0,0,0.007595486111111111,67.01497395833333,0)" xlink:href="#ay"/><use transform="matrix(0.007595486111111111,0,0,0.007595486111111111,76.083984375,0)" xlink:href="#aw"/></g><path d="M659 0H135v-1490h529c448 0 721 280 721 744 0 466-273 746-726 746zM440-263h204c287 0 437-148 437-483 0-333-150-481-435-481H440v964" id="aC"/><path d="M128 0v-1118h300V0H128zm150-1264c-91 0-165-68-165-154 0-85 74-154 165-154 90 0 165 69 165 154 0 86-75 154-165 154" id="aD"/><path d="M440 22C227 22 68-92 68-313c0-250 202-322 422-343 195-21 271-24 271-105 0-95-63-149-175-149-116 0-187 57-211 129l-275-46c57-194 237-305 487-305 240 0 474 108 474 379V0H777v-155h-10C713-51 605 22 440 22zm85-211c140 0 238-93 238-211v-121c-37 26-156 42-222 51-111 16-185 59-185 149 0 87 70 132 169 132" id="aE"/><path d="M625 442c-280 0-454-114-503-274l258-72c28 63 97 128 243 128 153 0 246-69 246-216v-206h-23C805-108 717-16 536-16 284-16 81-191 81-561c0-378 208-571 456-571 188 0 280 113 321 202h13v-188h295V-9c0 303-226 451-541 451zm5-686c153 0 240-119 240-319 0-198-86-329-240-329-158 0-241 137-241 329 0 195 85 319 241 319" id="aF"/><path d="M128 0v-1118h290v195h12c54-169 184-238 367-200v268c-27-8-86-15-130-15-138 0-239 95-239 234V0H128" id="aG"/><path d="M128 0v-1118h278l12 217c60-163 185-234 319-234 143 0 236 81 288 251 63-172 205-251 359-251 205 0 357 138 357 381V0h-301v-697c0-126-76-187-177-187-114 0-184 79-184 196V0H789v-705c0-109-72-179-174-179-106 0-187 74-187 208V0H128" id="aH"/><g id="d"><use transform="matrix(0.010850694444444444,0,0,0.010850694444444444,0,0)" xlink:href="#aC"/><use transform="matrix(0.010850694444444444,0,0,0.010850694444444444,16.048177083333332,0)" xlink:href="#aD"/><use transform="matrix(0.010850694444444444,0,0,0.010850694444444444,22.0703125,0)" xlink:href="#aE"/><use transform="matrix(0.010850694444444444,0,0,0.010850694444444444,34.97178819444444,0)" xlink:href="#aF"/><use transform="matrix(0.010850694444444444,0,0,0.010850694444444444,49.01258680555556,0)" xlink:href="#aG"/><use transform="matrix(0.010850694444444444,0,0,0.010850694444444444,57.75824652777778,0)" xlink:href="#aE"/><use transform="matrix(0.010850694444444444,0,0,0.010850694444444444,70.65972222222223,0)" xlink:href="#aH"/><use transform="matrix(0.010850694444444444,0,0,0.010850694444444444,90.93967013888889,0)" xlink:href="#aE"/></g><path d="M537 19C279 19 81-185 81-557c0-382 206-575 454-575 190 0 278 113 318 202h10v-560h300V0H868v-179h-15C812-89 719 19 537 19zm92-241c153 0 240-134 240-336 0-203-86-334-240-334-158 0-240 138-240 334 0 197 84 336 240 336" id="aI"/><path d="M633 22C291 22 81-200 81-553c0-345 210-579 537-579 292 0 525 185 525 567v84H378c7 183 109 277 260 277 105 0 184-46 216-132l272 51C1071-99 893 22 633 22zM380-669h474c-15-146-94-237-233-237-143 0-229 99-241 237" id="aJ"/><g id="e"><use transform="matrix(0.010850694444444444,0,0,0.010850694444444444,0,0)" xlink:href="#aI"/><use transform="matrix(0.010850694444444444,0,0,0.010850694444444444,14.008246527777777,0)" xlink:href="#aJ"/></g><path d="M786 20C389 20 94-260 94-744c0-487 299-766 692-766 339 0 597 194 641 529h-309c-28-162-156-258-326-258-233 0-388 179-388 495 0 323 157 493 387 493 170 0 298-97 328-259h309c-34 277-266 530-642 530" id="aK"/><path d="M628 22C291 22 81-210 81-554c0-346 210-578 547-578 336 0 547 232 547 578 0 344-211 576-547 576zm0-236c160 0 242-146 242-341 0-197-82-341-242-341S387-753 387-555c0 195 81 341 241 341" id="aL"/><path d="M428-647V0H128v-1118h283l4 231c63-156 176-245 348-245 232 0 384 159 384 421V0H847v-659c0-139-76-222-202-222-128 0-217 86-217 234" id="aM"/><path d="M683-1118v229H474v562c0 71 29 104 102 104 23 0 73-7 95-13l43 225C647 9 580 16 520 16 296 16 174-96 174-301v-588H20v-229h154v-266h300v266h209" id="aN"/><path d="M572 22C302 22 117-98 78-306l279-48c29 105 101 156 224 156 114 0 185-48 185-115 0-118-228-130-337-155-215-49-322-150-322-317 0-215 187-347 470-347 265 0 424 116 466 298l-266 47c-24-76-87-130-196-130-98 0-174 46-174 113 0 56 38 95 144 117l201 40c216 44 320 143 320 302 0 220-207 367-500 367" id="aO"/><g id="f"><use transform="matrix(0.010850694444444444,0,0,0.010850694444444444,0,0)" xlink:href="#aK"/><use transform="matrix(0.010850694444444444,0,0,0.010850694444444444,16.438802083333332,0)" xlink:href="#aL"/><use transform="matrix(0.010850694444444444,0,0,0.010850694444444444,30.067274305555554,0)" xlink:href="#aM"/><use transform="matrix(0.010850694444444444,0,0,0.010850694444444444,43.90190972222222,0)" xlink:href="#aN"/><use transform="matrix(0.010850694444444444,0,0,0.010850694444444444,51.82291666666667,0)" xlink:href="#aJ"/><use transform="matrix(0.010850694444444444,0,0,0.010850694444444444,65.06076388888889,0)" xlink:href="#aM"/><use transform="matrix(0.010850694444444444,0,0,0.010850694444444444,78.89539930555556,0)" xlink:href="#aJ"/><use transform="matrix(0.010850694444444444,0,0,0.010850694444444444,92.13324652777777,0)" xlink:href="#aI"/><use transform="matrix(0.010850694444444444,0,0,0.010850694444444444,106.14149305555556,0)" xlink:href="#aL"/><use transform="matrix(0.010850694444444444,0,0,0.010850694444444444,119.76996527777777,0)" xlink:href="#aG"/><use transform="matrix(0.010850694444444444,0,0,0.010850694444444444,128.2769097222222,0)" xlink:href="#aJ"/><use transform="matrix(0.010850694444444444,0,0,0.010850694444444444,141.51475694444443,0)" xlink:href="#aO"/></g><path d="M763 24c-353 0-583-224-583-531v-983h190v968c0 214 149 370 393 370 243 0 391-156 391-370v-968h190v983c0 307-230 531-581 531" id="aP"/><path d="M538 24C308 24 148-78 108-271l171-41c32 123 123 178 257 178 156 0 256-77 256-169 0-77-54-128-164-154l-186-44c-203-48-300-148-300-305 0-192 176-326 414-326 230 0 351 112 402 269l-163 42c-31-80-94-158-238-158-133 0-233 69-233 162 0 83 57 129 188 160l169 40c203 48 298 149 298 302 0 196-179 339-441 339" id="aQ"/><path d="M537 14c-226 0-379-139-379-422v-710h180v695c0 172 97 275 253 275 160 0 281-109 281-300v-670h181V0H879v-209C806-46 684 14 537 14" id="aR"/><path d="M471 26C259 26 90-98 90-318c0-256 228-303 435-329 202-27 287-16 287-108 0-139-79-219-234-219-161 0-248 86-283 164l-173-57c86-203 278-265 451-265 150 0 419 46 419 395V0H815v-152h-12C765-73 660 26 471 26zm31-159c199 0 310-134 310-271v-155c-30 35-226 55-295 64-131 17-246 59-246 186 0 116 97 176 231 176" id="aS"/><path d="M158 0v-1118h174v172h12c41-113 157-188 290-188 26 0 70 2 91 3v181c-11-2-60-10-108-10-161 0-279 109-279 260V0H158" id="aT"/><path d="M158 0v-1118h180V0H158zm91-1301c-68 0-125-53-125-119s57-119 125-119c69 0 126 53 126 119s-57 119-126 119" id="aU"/><path d="M613 24c-304 0-509-231-509-576 0-350 205-580 509-580 305 0 511 230 511 580 0 345-206 576-511 576zm0-161c226 0 329-195 329-415 0-222-103-419-329-419-223 0-326 196-326 419 0 220 103 415 326 415" id="aV"/><g id="g"><use transform="matrix(0.008680555555555556,0,0,0.008680555555555556,0,0)" xlink:href="#aP"/><use transform="matrix(0.008680555555555556,0,0,0.008680555555555556,13.229166666666668,0)" xlink:href="#aQ"/><use transform="matrix(0.008680555555555556,0,0,0.008680555555555556,22.612847222222225,0)" xlink:href="#aR"/><use transform="matrix(0.008680555555555556,0,0,0.008680555555555556,33.125,0)" xlink:href="#aS"/><use transform="matrix(0.008680555555555556,0,0,0.008680555555555556,43.107638888888886,0)" xlink:href="#aT"/><use transform="matrix(0.008680555555555556,0,0,0.008680555555555556,50.078125,0)" xlink:href="#aU"/><use transform="matrix(0.008680555555555556,0,0,0.008680555555555556,54.38368055555556,0)" xlink:href="#aV"/></g><path d="M226 279v-1860h398v153H398V126h226v153H226" id="aW"/><path d="M180 0v-1490h510c348 0 508 209 508 474 0 266-160 477-507 477H370V0H180zm190-706h312c236 0 327-133 327-310 0-176-91-307-329-307H370v617" id="aX"/><path d="M628 24c-324 0-524-230-524-574 0-343 198-582 503-582 237 0 487 146 487 559v75H286c9 234 145 362 343 362 132 0 231-58 273-172l174 48C1024-91 857 24 628 24zM287-650h624c-17-190-120-322-304-322-192 0-309 151-320 322" id="aY"/><path d="M338-670V0H158v-1118h173l1 207c72-158 192-221 342-221 226 0 378 139 378 422V0H872v-695c0-172-96-275-252-275-161 0-282 109-282 300" id="aZ"/><path d="M123 279V126h226v-1554H123v-153h398V279H123" id="ba"/><g id="h"><use transform="matrix(0.006510416666666667,0,0,0.006510416666666667,0,0)" xlink:href="#aW"/><use transform="matrix(0.006510416666666667,0,0,0.006510416666666667,4.86328125,0)" xlink:href="#aX"/><use transform="matrix(0.006510416666666667,0,0,0.006510416666666667,13.307291666666668,0)" xlink:href="#aY"/><use transform="matrix(0.006510416666666667,0,0,0.006510416666666667,21.080729166666668,0)" xlink:href="#aT"/><use transform="matrix(0.006510416666666667,0,0,0.006510416666666667,26.100260416666668,0)" xlink:href="#aQ"/><use transform="matrix(0.006510416666666667,0,0,0.006510416666666667,33.138020833333336,0)" xlink:href="#aV"/><use transform="matrix(0.006510416666666667,0,0,0.006510416666666667,41.1328125,0)" xlink:href="#aZ"/><use transform="matrix(0.006510416666666667,0,0,0.006510416666666667,49.010416666666664,0)" xlink:href="#aS"/><use transform="matrix(0.006510416666666667,0,0,0.006510416666666667,56.49739583333332,0)" xlink:href="#ba"/></g><path d="M783 20c-382 0-661-292-661-764 0-473 279-766 661-766 302 0 548 182 601 489h-190c-42-204-217-313-411-313-268 0-476 208-476 590 0 381 209 588 476 588 195 0 369-110 411-313h190c-52 303-296 489-601 489" id="bb"/><path d="M338-1490V0H158v-1490h180" id="bc"/><path d="M598-1118v154H368v674c0 100 37 144 132 144 23 0 62-6 92-12L629-6c-37 13-88 20-134 20-193 0-307-107-307-290v-688H20v-154h168v-266h180v266h230" id="bd"/><g id="j"><use transform="matrix(0.006510416666666667,0,0,0.006510416666666667,0,0)" xlink:href="#bb"/><use transform="matrix(0.006510416666666667,0,0,0.006510416666666667,9.739583333333334,0)" xlink:href="#bc"/><use transform="matrix(0.006510416666666667,0,0,0.006510416666666667,12.96875,0)" xlink:href="#aU"/><use transform="matrix(0.006510416666666667,0,0,0.006510416666666667,16.197916666666668,0)" xlink:href="#aY"/><use transform="matrix(0.006510416666666667,0,0,0.006510416666666667,23.971354166666668,0)" xlink:href="#aZ"/><use transform="matrix(0.006510416666666667,0,0,0.006510416666666667,31.848958333333336,0)" xlink:href="#bd"/><use transform="matrix(0.006510416666666667,0,0,0.006510416666666667,36.08072916666667,0)" xlink:href="#aY"/></g><path d="M611 442c-248 0-391-105-460-228l146-94c47 65 117 165 314 165 178 0 307-82 307-266v-224h-17C863-141 792-18 576-18c-268 0-472-195-472-546 0-346 197-568 476-568 216 0 288 133 326 193h17v-179h175V29c0 289-215 413-487 413zm-5-620c203 0 314-146 314-390 0-237-108-403-314-403-213 0-319 180-319 403 0 230 109 390 319 390" id="be"/><path d="M577 24c-279 0-473-224-473-580 0-354 195-576 474-576 218 0 287 134 324 193h14v-551h180V0H922v-173h-20C865-111 790 24 577 24zm27-161c203 0 314-172 314-421 0-247-108-413-314-413-212 0-317 181-317 413 0 235 108 421 317 421" id="bf"/><g id="k"><use transform="matrix(0.006510416666666667,0,0,0.006510416666666667,0,0)" xlink:href="#aT"/><use transform="matrix(0.006510416666666667,0,0,0.006510416666666667,4.798177083333333,0)" xlink:href="#aY"/><use transform="matrix(0.006510416666666667,0,0,0.006510416666666667,12.571614583333332,0)" xlink:href="#be"/><use transform="matrix(0.006510416666666667,0,0,0.006510416666666667,20.748697916666664,0)" xlink:href="#aU"/><use transform="matrix(0.006510416666666667,0,0,0.006510416666666667,23.977864583333332,0)" xlink:href="#aQ"/><use transform="matrix(0.006510416666666667,0,0,0.006510416666666667,31.015625,0)" xlink:href="#bd"/><use transform="matrix(0.006510416666666667,0,0,0.006510416666666667,35.377604166666664,0)" xlink:href="#aT"/><use transform="matrix(0.006510416666666667,0,0,0.006510416666666667,40.397135416666664,0)" xlink:href="#aS"/><use transform="matrix(0.006510416666666667,0,0,0.006510416666666667,47.88411458333333,0)" xlink:href="#bf"/><use transform="matrix(0.006510416666666667,0,0,0.006510416666666667,56.04817708333332,0)" xlink:href="#aV"/></g><g id="l"><use transform="matrix(0.006510416666666667,0,0,0.006510416666666667,0,0)" xlink:href="#aY"/><use transform="matrix(0.006510416666666667,0,0,0.006510416666666667,7.7734375,0)" xlink:href="#aZ"/></g><g id="m"><use transform="matrix(0.006510416666666667,0,0,0.006510416666666667,0,0)" xlink:href="#aY"/><use transform="matrix(0.006510416666666667,0,0,0.006510416666666667,7.7734375,0)" xlink:href="#bc"/></g><path d="M158 0v-1118h175l1 205c55-151 181-225 313-225 147 0 245 90 285 228 53-141 190-228 352-228 194 0 352 125 352 384V0h-181v-749c0-161-105-225-225-225-151 0-243 103-243 244V0H807v-767c0-124-93-207-219-207-131 0-250 92-250 270V0H158" id="bg"/><g id="n"><use transform="matrix(0.006510416666666667,0,0,0.006510416666666667,0,0)" xlink:href="#aQ"/><use transform="matrix(0.006510416666666667,0,0,0.006510416666666667,7.037760416666667,0)" xlink:href="#aU"/><use transform="matrix(0.006510416666666667,0,0,0.006510416666666667,10.266927083333334,0)" xlink:href="#aQ"/><use transform="matrix(0.006510416666666667,0,0,0.006510416666666667,17.3046875,0)" xlink:href="#bd"/><use transform="matrix(0.006510416666666667,0,0,0.006510416666666667,21.536458333333336,0)" xlink:href="#aY"/><use transform="matrix(0.006510416666666667,0,0,0.006510416666666667,29.309895833333336,0)" xlink:href="#bg"/><use transform="matrix(0.006510416666666667,0,0,0.006510416666666667,40.989583333333336,0)" xlink:href="#aS"/></g><path d="M180 0v-1490h224l606 953c40 63 108 177 176 312-27-437-7-821-13-1265h190V0h-226C860-448 622-778 356-1262c27 476 11 792 15 1262H180" id="bh"/><path d="M481 0L54-1118h197c107 314 236 620 325 951 87-331 217-637 324-951h197L670 0H481" id="bi"/><path d="M180 0v-1490h190v1322h690V0H180" id="bj"/><path d="M158 0v-1490h180v865h22l478-493h223L593-638 1096 0H865L456-523 338-412V0H158" id="bk"/><g id="o"><use transform="matrix(0.006510416666666667,0,0,0.006510416666666667,0,0)" xlink:href="#bh"/><use transform="matrix(0.006510416666666667,0,0,0.006510416666666667,10.045572916666668,0)" xlink:href="#aV"/><use transform="matrix(0.006510416666666667,0,0,0.006510416666666667,17.779947916666668,0)" xlink:href="#bi"/><use transform="matrix(0.006510416666666667,0,0,0.006510416666666667,25.208333333333336,0)" xlink:href="#aS"/><use transform="matrix(0.006510416666666667,0,0,0.006510416666666667,32.6953125,0)" xlink:href="#bj"/><use transform="matrix(0.006510416666666667,0,0,0.006510416666666667,40.234375,0)" xlink:href="#aU"/><use transform="matrix(0.006510416666666667,0,0,0.006510416666666667,43.463541666666664,0)" xlink:href="#aZ"/><use transform="matrix(0.006510416666666667,0,0,0.006510416666666667,51.34114583333333,0)" xlink:href="#bk"/></g><path d="M49 0l509-1490h400L1480 0h-339l-115-346H497L386 0H49zm524-585h374c-75-213-124-402-192-666-66 268-110 453-182 666" id="bl"/><path d="M128 418v-1536h295v188h14c41-89 129-202 319-202 248 0 453 193 453 575 0 372-197 576-455 576-183 0-275-108-317-198h-9v597H128zm534-640c156 0 240-139 240-336 0-196-83-334-240-334-154 0-241 131-241 334 0 202 88 336 241 336" id="bm"/><path d="M428-1490V0H128v-1490h300" id="bn"/><path d="M628 22C291 22 81-210 81-554c0-346 210-578 547-578 265 0 455 142 497 372l-279 52c-25-116-99-188-215-188-160 0-244 139-244 341 0 200 84 341 244 341 116 0 193-74 217-195l279 51C1085-123 896 22 628 22" id="bo"/><path d="M628 22C291 22 81-210 81-554c0-346 210-578 547-578 336 0 547 232 547 578 0 344-211 576-547 576zm0-236c160 0 242-146 242-341 0-197-82-341-242-341S387-753 387-555c0 195 81 341 241 341zM519-1260l139-311h278l-207 311H519" id="bp"/><g id="q"><use transform="matrix(0.008173828125000001,0,0,0.008173828125000001,0,0)" xlink:href="#bl"/><use transform="matrix(0.008173828125000001,0,0,0.008173828125000001,12.497783203125001,0)" xlink:href="#bm"/><use transform="matrix(0.008173828125000001,0,0,0.008173828125000001,23.0501953125,0)" xlink:href="#bn"/><use transform="matrix(0.008173828125000001,0,0,0.008173828125000001,27.586669921875,0)" xlink:href="#aD"/><use transform="matrix(0.008173828125000001,0,0,0.008173828125000001,32.12314453125,0)" xlink:href="#bo"/><use transform="matrix(0.008173828125000001,0,0,0.008173828125000001,42.136083984375,0)" xlink:href="#aE"/><use transform="matrix(0.008173828125000001,0,0,0.008173828125000001,51.854765625,0)" xlink:href="#bo"/><use transform="matrix(0.008173828125000001,0,0,0.008173828125000001,61.704228515625,0)" xlink:href="#aD"/><use transform="matrix(0.008173828125000001,0,0,0.008173828125000001,66.240703125,0)" xlink:href="#bp"/><use transform="matrix(0.008173828125000001,0,0,0.008173828125000001,76.50703125,0)" xlink:href="#aM"/></g><path d="M361 0L31-1118h315c68 295 127 523 188 845 63-317 128-551 199-845h276c71 296 131 525 196 846 57-321 119-552 186-846h319L1378 0h-305c-73-261-148-486-204-771C813-484 740-261 666 0H361" id="bq"/><path d="M754 19C571 19 479-89 437-179h-14V0H128v-1490h300v560h9c41-89 129-202 319-202 248 0 453 193 453 575 0 372-197 576-455 576zm-92-241c156 0 240-139 240-336 0-196-83-334-240-334-154 0-241 131-241 334 0 202 88 336 241 336" id="br"/><g id="r"><use transform="matrix(0.008173828125000001,0,0,0.008173828125000001,0,0)" xlink:href="#bq"/><use transform="matrix(0.008173828125000001,0,0,0.008173828125000001,14.001767578125001,0)" xlink:href="#aJ"/><use transform="matrix(0.008173828125000001,0,0,0.008173828125000001,23.973837890625003,0)" xlink:href="#br"/></g><path d="M182 279v-1860h488v228H471V51h199v228H182" id="bs"/><path d="M135 0v-1490h581c339 0 533 192 533 485 0 204-94 351-264 424L1302 0H964L680-532H440V0H135zm305-779h220c186 0 274-77 274-226 0-150-88-233-275-233H440v459" id="bt"/><g id="s"><use transform="matrix(0.006510416666666667,0,0,0.006510416666666667,0,0)" xlink:href="#bs"/><use transform="matrix(0.006510416666666667,0,0,0.006510416666666667,5.266927083333334,0)" xlink:href="#bt"/><use transform="matrix(0.006510416666666667,0,0,0.006510416666666667,13.860677083333337,0)" xlink:href="#aJ"/><use transform="matrix(0.006510416666666667,0,0,0.006510416666666667,21.933593750000004,0)" xlink:href="#aE"/><use transform="matrix(0.006510416666666667,0,0,0.006510416666666667,29.674479166666675,0)" xlink:href="#bo"/><use transform="matrix(0.006510416666666667,0,0,0.006510416666666667,37.51953125000001,0)" xlink:href="#aN"/></g><path d="M120 396l69-226c123 42 245 23 254-107l8-60L31-1118h319c87 288 199 559 259 872 72-308 185-583 277-872h315L726 132c-68 181-186 294-410 294-79 0-153-13-196-30" id="bu"/><use transform="matrix(0.006510416666666667,0,0,0.006510416666666667,0,0)" xlink:href="#bu" id="t"/><path d="M567 20C257 20 68-148 68-448v-87h305v92c0 143 75 217 194 217s193-74 193-218v-1046h302v1041c0 301-188 469-495 469" id="bv"/><path d="M443 0L31-1118h319c90 293 199 572 268 885 66-313 175-593 264-885h315L784 0H443" id="bw"/><path d="M681 22C323 22 94-145 85-462h297c10 151 131 226 296 226 163 0 271-77 271-190 0-102-95-149-257-189l-164-41c-252-61-403-188-403-405 0-269 236-449 560-449 330 0 546 183 551 445H941c-11-119-106-188-259-188-156 0-244 72-244 172-3 156 226 185 373 221 250 61 445 186 445 436 0 271-213 446-575 446" id="bx"/><path d="M102 279V51h199v-1404H102v-228h489V279H102" id="by"/><g id="u"><use transform="matrix(0.006510416666666667,0,0,0.006510416666666667,0,0)" xlink:href="#bv"/><use transform="matrix(0.006510416666666667,0,0,0.006510416666666667,7.79296875,0)" xlink:href="#aE"/><use transform="matrix(0.006510416666666667,0,0,0.006510416666666667,15.305989583333334,0)" xlink:href="#bw"/><use transform="matrix(0.006510416666666667,0,0,0.006510416666666667,23.170572916666668,0)" xlink:href="#aE"/><use transform="matrix(0.006510416666666667,0,0,0.006510416666666667,30.911458333333336,0)" xlink:href="#bx"/><use transform="matrix(0.006510416666666667,0,0,0.006510416666666667,39.641927083333336,0)" xlink:href="#bo"/><use transform="matrix(0.006510416666666667,0,0,0.006510416666666667,47.48697916666667,0)" xlink:href="#aG"/><use transform="matrix(0.006510416666666667,0,0,0.006510416666666667,53.01432291666667,0)" xlink:href="#aD"/><use transform="matrix(0.006510416666666667,0,0,0.006510416666666667,56.62760416666667,0)" xlink:href="#bm"/><use transform="matrix(0.006510416666666667,0,0,0.006510416666666667,65.03255208333334,0)" xlink:href="#aN"/><use transform="matrix(0.006510416666666667,0,0,0.006510416666666667,69.91536458333334,0)" xlink:href="#by"/></g><g id="w"><use transform="matrix(0.006510416666666667,0,0,0.006510416666666667,0,0)" xlink:href="#aX"/><use transform="matrix(0.006510416666666667,0,0,0.006510416666666667,8.515625,0)" xlink:href="#aT"/><use transform="matrix(0.006510416666666667,0,0,0.006510416666666667,13.313802083333334,0)" xlink:href="#aV"/><use transform="matrix(0.006510416666666667,0,0,0.006510416666666667,21.048177083333336,0)" xlink:href="#bi"/><use transform="matrix(0.006510416666666667,0,0,0.006510416666666667,28.28125,0)" xlink:href="#aY"/><use transform="matrix(0.006510416666666667,0,0,0.006510416666666667,36.0546875,0)" xlink:href="#aY"/></g><g id="x"><use transform="matrix(0.006510416666666667,0,0,0.006510416666666667,0,0)" xlink:href="#bc"/><use transform="matrix(0.006510416666666667,0,0,0.006510416666666667,3.229166666666667,0)" xlink:href="#aS"/><use transform="matrix(0.006510416666666667,0,0,0.006510416666666667,10.716145833333334,0)" xlink:href="#aQ"/></g><path d="M678-1118v154H420V0H240v-964H20v-154h220v-149c0-194 155-293 318-293 85 0 141 18 168 30l-50 154c-19-6-47-17-97-17-111 0-159 58-159 166v109h258" id="bz"/><path d="M613 24c-304 0-509-231-509-576 0-350 205-580 509-580 216 0 392 114 453 309l-173 49c-33-115-133-197-280-197-223 0-326 196-326 419 0 220 103 415 326 415 150 0 252-85 285-206l172 49C1010-95 832 24 613 24" id="bA"/><g id="y"><use transform="matrix(0.006510416666666667,0,0,0.006510416666666667,0,0)" xlink:href="#bz"/><use transform="matrix(0.006510416666666667,0,0,0.006510416666666667,4.934895833333334,0)" xlink:href="#aR"/><use transform="matrix(0.006510416666666667,0,0,0.006510416666666667,12.819010416666668,0)" xlink:href="#aZ"/><use transform="matrix(0.006510416666666667,0,0,0.006510416666666667,20.696614583333336,0)" xlink:href="#bA"/><use transform="matrix(0.006510416666666667,0,0,0.006510416666666667,28.313802083333336,0)" xlink:href="#aU"/><use transform="matrix(0.006510416666666667,0,0,0.006510416666666667,31.54296875,0)" xlink:href="#aV"/><use transform="matrix(0.006510416666666667,0,0,0.006510416666666667,39.53776041666667,0)" xlink:href="#aZ"/><use transform="matrix(0.006510416666666667,0,0,0.006510416666666667,47.415364583333336,0)" xlink:href="#aS"/><use transform="matrix(0.006510416666666667,0,0,0.006510416666666667,54.90234375,0)" xlink:href="#bc"/><use transform="matrix(0.006510416666666667,0,0,0.006510416666666667,58.13151041666667,0)" xlink:href="#aU"/><use transform="matrix(0.006510416666666667,0,0,0.006510416666666667,61.36067708333332,0)" xlink:href="#bf"/><use transform="matrix(0.006510416666666667,0,0,0.006510416666666667,69.52473958333333,0)" xlink:href="#aS"/><use transform="matrix(0.006510416666666667,0,0,0.006510416666666667,77.01171875,0)" xlink:href="#bf"/><use transform="matrix(0.006510416666666667,0,0,0.006510416666666667,85.17578125,0)" xlink:href="#aY"/><use transform="matrix(0.006510416666666667,0,0,0.006510416666666667,92.94921875,0)" xlink:href="#aQ"/></g><path d="M1096 418H916v-591h-14C865-111 790 24 577 24c-279 0-473-224-473-580 0-354 195-576 474-576 218 0 287 134 324 193h20v-179h174V418zM604-137c203 0 314-172 314-421 0-247-108-413-314-413-212 0-317 181-317 413 0 235 108 421 317 421" id="bB"/><g id="z"><use transform="matrix(0.006510416666666667,0,0,0.006510416666666667,0,0)" xlink:href="#bB"/><use transform="matrix(0.006510416666666667,0,0,0.006510416666666667,8.1640625,0)" xlink:href="#aR"/><use transform="matrix(0.006510416666666667,0,0,0.006510416666666667,16.048177083333336,0)" xlink:href="#aY"/></g><g id="A"><use transform="matrix(0.006510416666666667,0,0,0.006510416666666667,0,0)" xlink:href="#aV"/><use transform="matrix(0.006510416666666667,0,0,0.006510416666666667,7.994791666666667,0)" xlink:href="#bz"/><use transform="matrix(0.006510416666666667,0,0,0.006510416666666667,12.9296875,0)" xlink:href="#aT"/><use transform="matrix(0.006510416666666667,0,0,0.006510416666666667,17.727864583333336,0)" xlink:href="#aY"/><use transform="matrix(0.006510416666666667,0,0,0.006510416666666667,25.501302083333336,0)" xlink:href="#bA"/><use transform="matrix(0.006510416666666667,0,0,0.006510416666666667,33.118489583333336,0)" xlink:href="#aY"/></g><path d="M135 0v-1490h581c339 0 533 210 533 503 0 295-197 500-540 500H440V0H135zm305-733h220c186 0 274-104 274-254s-88-251-275-251H440v505" id="bC"/><path d="M440-1490V0H135v-1490h305" id="bD"/><g id="B"><use transform="matrix(0.008173828125000001,0,0,0.008173828125000001,0,0)" xlink:href="#bl"/><use transform="matrix(0.008173828125000001,0,0,0.008173828125000001,12.497783203125001,0)" xlink:href="#bC"/><use transform="matrix(0.008173828125000001,0,0,0.008173828125000001,23.344453125,0)" xlink:href="#bD"/></g><path d="M795 20C377 20 94-272 94-743c0-483 302-767 694-767 335 0 593 206 635 500h-310c-42-142-154-229-320-229-230 0-389 177-389 493s154 495 393 495c212 0 340-120 345-311H818v-232h620v186c0 391-269 628-643 628" id="bE"/><g id="C"><use transform="matrix(0.008173828125000001,0,0,0.008173828125000001,0,0)" xlink:href="#bE"/><use transform="matrix(0.008173828125000001,0,0,0.008173828125000001,12.563173828125002,0)" xlink:href="#aE"/><use transform="matrix(0.008173828125000001,0,0,0.008173828125000001,22.281855468750003,0)" xlink:href="#aN"/><use transform="matrix(0.008173828125000001,0,0,0.008173828125000001,28.24875,0)" xlink:href="#aJ"/><use transform="matrix(0.008173828125000001,0,0,0.008173828125000001,37.991953125,0)" xlink:href="#bq"/><use transform="matrix(0.008173828125000001,0,0,0.008173828125000001,52.18171875,0)" xlink:href="#aE"/><use transform="matrix(0.008173828125000001,0,0,0.008173828125000001,61.614316406250005,0)" xlink:href="#bu"/></g><path d="M135 0v-1490h340l471 754c59 97 122 210 187 365-32-387-14-721-19-1119h312V0h-341C855-382 627-689 427-1113c32 420 16 695 20 1113H135" id="bF"/><path d="M42 0l360-574-338-544h324c72 124 151 261 209 394 58-134 140-271 215-394h318L785-570 1146 0H824c-79-136-169-280-234-425C528-278 439-134 360 0H42" id="bG"/><g id="D"><use transform="matrix(0.006510416666666667,0,0,0.006510416666666667,0,0)" xlink:href="#bs"/><use transform="matrix(0.006510416666666667,0,0,0.006510416666666667,5.266927083333334,0)" xlink:href="#bF"/><use transform="matrix(0.006510416666666667,0,0,0.006510416666666667,15.4296875,0)" xlink:href="#aF"/><use transform="matrix(0.006510416666666667,0,0,0.006510416666666667,23.85416666666667,0)" xlink:href="#aD"/><use transform="matrix(0.006510416666666667,0,0,0.006510416666666667,27.467447916666675,0)" xlink:href="#aM"/><use transform="matrix(0.006510416666666667,0,0,0.006510416666666667,35.76822916666667,0)" xlink:href="#bG"/><use transform="matrix(0.006510416666666667,0,0,0.006510416666666667,43.50260416666667,0)" xlink:href="#by"/></g><path fill="#333" d="M783 20c-382 0-661-292-661-764 0-473 279-766 661-766 302 0 548 182 601 489h-190c-42-204-217-313-411-313-268 0-476 208-476 590 0 381 209 588 476 588 195 0 369-110 411-313h190c-52 303-296 489-601 489" id="bH"/><path fill="#333" d="M613 24c-304 0-509-231-509-576 0-350 205-580 509-580 305 0 511 230 511 580 0 345-206 576-511 576zm0-161c226 0 329-195 329-415 0-222-103-419-329-419-223 0-326 196-326 419 0 220 103 415 326 415" id="bI"/><path fill="#333" d="M338-670V0H158v-1118h173l1 207c72-158 192-221 342-221 226 0 378 139 378 422V0H872v-695c0-172-96-275-252-275-161 0-282 109-282 300" id="bJ"/><path fill="#333" d="M538 24C308 24 148-78 108-271l171-41c32 123 123 178 257 178 156 0 256-77 256-169 0-77-54-128-164-154l-186-44c-203-48-300-148-300-305 0-192 176-326 414-326 230 0 351 112 402 269l-163 42c-31-80-94-158-238-158-133 0-233 69-233 162 0 83 57 129 188 160l169 40c203 48 298 149 298 302 0 196-179 339-441 339" id="bK"/><path fill="#333" d="M537 14c-226 0-379-139-379-422v-710h180v695c0 172 97 275 253 275 160 0 281-109 281-300v-670h181V0H879v-209C806-46 684 14 537 14" id="bL"/><path fill="#333" d="M338-1490V0H158v-1490h180" id="bM"/><path fill="#333" d="M598-1118v154H368v674c0 100 37 144 132 144 23 0 62-6 92-12L629-6c-37 13-88 20-134 20-193 0-307-107-307-290v-688H20v-154h168v-266h180v266h230" id="bN"/><path fill="#333" d="M471 26C259 26 90-98 90-318c0-256 228-303 435-329 202-27 287-16 287-108 0-139-79-219-234-219-161 0-248 86-283 164l-173-57c86-203 278-265 451-265 150 0 419 46 419 395V0H815v-152h-12C765-73 660 26 471 26zm31-159c199 0 310-134 310-271v-155c-30 35-226 55-295 64-131 17-246 59-246 186 0 116 97 176 231 176" id="bO"/><g id="E"><use transform="matrix(0.006510416666666667,0,0,0.006510416666666667,0,0)" xlink:href="#bH"/><use transform="matrix(0.006510416666666667,0,0,0.006510416666666667,9.739583333333334,0)" xlink:href="#bI"/><use transform="matrix(0.006510416666666667,0,0,0.006510416666666667,17.734375,0)" xlink:href="#bJ"/><use transform="matrix(0.006510416666666667,0,0,0.006510416666666667,25.611979166666668,0)" xlink:href="#bK"/><use transform="matrix(0.006510416666666667,0,0,0.006510416666666667,32.649739583333336,0)" xlink:href="#bL"/><use transform="matrix(0.006510416666666667,0,0,0.006510416666666667,40.53385416666667,0)" xlink:href="#bM"/><use transform="matrix(0.006510416666666667,0,0,0.006510416666666667,43.958333333333336,0)" xlink:href="#bN"/><use transform="matrix(0.006510416666666667,0,0,0.006510416666666667,48.385416666666664,0)" xlink:href="#bO"/></g><path fill="#333" d="M158 418v-1536h174v179h20c37-59 106-193 324-193 279 0 474 222 474 576 0 356-194 580-473 580-213 0-288-135-325-197h-14v591H158zm492-555c209 0 317-186 317-421 0-232-105-413-317-413-206 0-314 166-314 413 0 249 111 421 314 421" id="bP"/><path fill="#333" d="M628 24c-324 0-524-230-524-574 0-343 198-582 503-582 237 0 487 146 487 559v75H286c9 234 145 362 343 362 132 0 231-58 273-172l174 48C1024-91 857 24 628 24zM287-650h624c-17-190-120-322-304-322-192 0-309 151-320 322" id="bQ"/><path fill="#333" d="M158 0v-1118h174v172h12c41-113 157-188 290-188 26 0 70 2 91 3v181c-11-2-60-10-108-10-161 0-279 109-279 260V0H158" id="bR"/><path fill="#333" d="M678-1118v154H420V0H240v-964H20v-154h220v-149c0-194 155-293 318-293 85 0 141 18 168 30l-50 154c-19-6-47-17-97-17-111 0-159 58-159 166v109h258" id="bS"/><path fill="#333" d="M158 0v-1118h180V0H158zm91-1301c-68 0-125-53-125-119s57-119 125-119c69 0 126 53 126 119s-57 119-126 119" id="bT"/><path fill="#333" d="M128 359l88-567h206L266 359H128" id="bU"/><g id="F"><use transform="matrix(0.006510416666666667,0,0,0.006510416666666667,0,0)" xlink:href="#bP"/><use transform="matrix(0.006510416666666667,0,0,0.006510416666666667,8.1640625,0)" xlink:href="#bQ"/><use transform="matrix(0.006510416666666667,0,0,0.006510416666666667,15.9375,0)" xlink:href="#bR"/><use transform="matrix(0.006510416666666667,0,0,0.006510416666666667,21.165364583333332,0)" xlink:href="#bS"/><use transform="matrix(0.006510416666666667,0,0,0.006510416666666667,26.100260416666664,0)" xlink:href="#bT"/><use transform="matrix(0.006510416666666667,0,0,0.006510416666666667,29.329427083333336,0)" xlink:href="#bM"/><use transform="matrix(0.006510416666666667,0,0,0.006510416666666667,32.55859375,0)" xlink:href="#bU"/></g><path fill="#333" d="M677 24c-213 0-288-135-325-197h-20V0H158v-1490h180v551h14c37-59 106-193 324-193 279 0 474 222 474 576 0 356-194 580-473 580zm-27-161c209 0 317-186 317-421 0-232-105-413-317-413-206 0-314 166-314 413 0 249 111 421 314 421" id="bV"/><path fill="#333" d="M481 0L54-1118h197c107 314 236 620 325 951 87-331 217-637 324-951h197L670 0H481" id="bW"/><g id="G"><use transform="matrix(0.006510416666666667,0,0,0.006510416666666667,0,0)" xlink:href="#bI"/><use transform="matrix(0.006510416666666667,0,0,0.006510416666666667,7.994791666666667,0)" xlink:href="#bV"/><use transform="matrix(0.006510416666666667,0,0,0.006510416666666667,16.158854166666668,0)" xlink:href="#bK"/><use transform="matrix(0.006510416666666667,0,0,0.006510416666666667,23.196614583333336,0)" xlink:href="#bQ"/><use transform="matrix(0.006510416666666667,0,0,0.006510416666666667,30.970052083333336,0)" xlink:href="#bR"/><use transform="matrix(0.006510416666666667,0,0,0.006510416666666667,36.19791666666667,0)" xlink:href="#bW"/><use transform="matrix(0.006510416666666667,0,0,0.006510416666666667,43.62630208333334,0)" xlink:href="#bO"/></g><path fill="#333" d="M613 24c-304 0-509-231-509-576 0-350 205-580 509-580 216 0 392 114 453 309l-173 49c-33-115-133-197-280-197-223 0-326 196-326 419 0 220 103 415 326 415 150 0 252-85 285-206l172 49C1010-95 832 24 613 24" id="bX"/><path fill="#333" d="M471 26C259 26 90-98 90-318c0-256 228-303 435-329 202-27 287-16 287-108 0-139-79-219-234-219-161 0-248 86-283 164l-173-57c86-203 278-265 451-265 150 0 419 46 419 395V0H815v-152h-12C765-73 660 26 471 26zm31-159c199 0 310-134 310-271v-155c-30 35-226 55-295 64-131 17-246 59-246 186 0 116 97 176 231 176zm-23-1131l140-294h201l-194 294H479" id="bY"/><path fill="#333" d="M611 442c-248 0-391-105-460-228l146-94c47 65 117 165 314 165 178 0 307-82 307-266v-224h-17C863-141 792-18 576-18c-268 0-472-195-472-546 0-346 197-568 476-568 216 0 288 133 326 193h17v-179h175V29c0 289-215 413-487 413zm-5-620c203 0 314-146 314-390 0-237-108-403-314-403-213 0-319 180-319 403 0 230 109 390 319 390" id="bZ"/><g id="H"><use transform="matrix(0.006510416666666667,0,0,0.006510416666666667,0,0)" xlink:href="#bX"/><use transform="matrix(0.006510416666666667,0,0,0.006510416666666667,7.747395833333334,0)" xlink:href="#bO"/><use transform="matrix(0.006510416666666667,0,0,0.006510416666666667,15.234375,0)" xlink:href="#bN"/><use transform="matrix(0.006510416666666667,0,0,0.006510416666666667,19.661458333333332,0)" xlink:href="#bY"/><use transform="matrix(0.006510416666666667,0,0,0.006510416666666667,27.1484375,0)" xlink:href="#bM"/><use transform="matrix(0.006510416666666667,0,0,0.006510416666666667,30.377604166666668,0)" xlink:href="#bI"/><use transform="matrix(0.006510416666666667,0,0,0.006510416666666667,38.372395833333336,0)" xlink:href="#bZ"/><use transform="matrix(0.006510416666666667,0,0,0.006510416666666667,46.54947916666667,0)" xlink:href="#bI"/></g><path fill="#333" d="M140 405l46-156c120 36 205 19 263-150l32-93L54-1118h197c107 313 237 620 324 950 87-331 219-637 326-950h196L606 167c-68 178-176 259-334 259-64 0-113-12-132-21" id="ca"/><use transform="matrix(0.006510416666666667,0,0,0.006510416666666667,0,0)" xlink:href="#ca" id="I"/><path fill="#333" d="M126 0v-134l627-806v-11H146v-167h839v143L376-178v11h629V0H126" id="cb"/><g id="J"><use transform="matrix(0.006510416666666667,0,0,0.006510416666666667,0,0)" xlink:href="#bR"/><use transform="matrix(0.006510416666666667,0,0,0.006510416666666667,4.798177083333333,0)" xlink:href="#bQ"/><use transform="matrix(0.006510416666666667,0,0,0.006510416666666667,12.701822916666666,0)" xlink:href="#bO"/><use transform="matrix(0.006510416666666667,0,0,0.006510416666666667,20.188802083333332,0)" xlink:href="#bM"/><use transform="matrix(0.006510416666666667,0,0,0.006510416666666667,23.41796875,0)" xlink:href="#bT"/><use transform="matrix(0.006510416666666667,0,0,0.006510416666666667,26.647135416666668,0)" xlink:href="#cb"/><use transform="matrix(0.006510416666666667,0,0,0.006510416666666667,34.01041666666667,0)" xlink:href="#bO"/></g><path fill="#333" d="M577 24c-279 0-473-224-473-580 0-354 195-576 474-576 218 0 287 134 324 193h14v-551h180V0H922v-173h-20C865-111 790 24 577 24zm27-161c203 0 314-172 314-421 0-247-108-413-314-413-212 0-317 181-317 413 0 235 108 421 317 421" id="cc"/><g id="K"><use transform="matrix(0.006510416666666667,0,0,0.006510416666666667,0,0)" xlink:href="#bP"/><use transform="matrix(0.006510416666666667,0,0,0.006510416666666667,8.1640625,0)" xlink:href="#bQ"/><use transform="matrix(0.006510416666666667,0,0,0.006510416666666667,15.9375,0)" xlink:href="#cc"/><use transform="matrix(0.006510416666666667,0,0,0.006510416666666667,24.1015625,0)" xlink:href="#bT"/><use transform="matrix(0.006510416666666667,0,0,0.006510416666666667,27.330729166666668,0)" xlink:href="#cc"/><use transform="matrix(0.006510416666666667,0,0,0.006510416666666667,35.49479166666667,0)" xlink:href="#bI"/><use transform="matrix(0.006510416666666667,0,0,0.006510416666666667,43.489583333333336,0)" xlink:href="#bK"/></g><path fill="#333" d="M180 0v-1490h510c348 0 508 194 508 460 0 198-88 351-276 417L1256 0h-220L726-579c-117 2-238 0-356 1V0H180zm190-747h312c235 0 327-108 327-283 0-177-92-293-329-293H370v576" id="cd"/><g id="L"><use transform="matrix(0.006510416666666667,0,0,0.006510416666666667,0,0)" xlink:href="#cd"/><use transform="matrix(0.006510416666666667,0,0,0.006510416666666667,8.385416666666668,0)" xlink:href="#bQ"/><use transform="matrix(0.006510416666666667,0,0,0.006510416666666667,16.2890625,0)" xlink:href="#bO"/><use transform="matrix(0.006510416666666667,0,0,0.006510416666666667,23.776041666666668,0)" xlink:href="#bM"/><use transform="matrix(0.006510416666666667,0,0,0.006510416666666667,27.005208333333336,0)" xlink:href="#bT"/><use transform="matrix(0.006510416666666667,0,0,0.006510416666666667,30.234375,0)" xlink:href="#cb"/><use transform="matrix(0.006510416666666667,0,0,0.006510416666666667,37.59765625,0)" xlink:href="#bO"/></g><path fill="#333" d="M158 0v-1118h175l1 205c55-151 181-225 313-225 147 0 245 90 285 228 53-141 190-228 352-228 194 0 352 125 352 384V0h-181v-749c0-161-105-225-225-225-151 0-243 103-243 244V0H807v-767c0-124-93-207-219-207-131 0-250 92-250 270V0H158" id="ce"/><g id="M"><use transform="matrix(0.006510416666666667,0,0,0.006510416666666667,0,0)" xlink:href="#bM"/><use transform="matrix(0.006510416666666667,0,0,0.006510416666666667,3.229166666666667,0)" xlink:href="#bM"/><use transform="matrix(0.006510416666666667,0,0,0.006510416666666667,6.458333333333334,0)" xlink:href="#bO"/><use transform="matrix(0.006510416666666667,0,0,0.006510416666666667,13.9453125,0)" xlink:href="#ce"/><use transform="matrix(0.006510416666666667,0,0,0.006510416666666667,25.625,0)" xlink:href="#bO"/><use transform="matrix(0.006510416666666667,0,0,0.006510416666666667,33.111979166666664,0)" xlink:href="#cc"/><use transform="matrix(0.006510416666666667,0,0,0.006510416666666667,41.276041666666664,0)" xlink:href="#bO"/></g><g id="N"><use transform="matrix(0.006510416666666667,0,0,0.006510416666666667,0,0)" xlink:href="#bO"/><use transform="matrix(0.006510416666666667,0,0,0.006510416666666667,7.486979166666667,0)" xlink:href="#bM"/></g><path fill="#333" d="M52 0l541-1490h220L1361 0h-200l-149-416H398L254 0H52zm404-582h497c-103-290-145-390-251-756-108 377-145 460-246 756" id="cf"/><path fill="#333" d="M180 0v-1490h510c348 0 508 209 508 474 0 266-160 477-507 477H370V0H180zm190-706h312c236 0 327-133 327-310 0-176-91-307-329-307H370v617" id="cg"/><path fill="#333" d="M370-1490V0H180v-1490h190" id="ch"/><g id="O"><use transform="matrix(0.006510416666666667,0,0,0.006510416666666667,0,0)" xlink:href="#cf"/><use transform="matrix(0.006510416666666667,0,0,0.006510416666666667,9.19921875,0)" xlink:href="#cg"/><use transform="matrix(0.006510416666666667,0,0,0.006510416666666667,17.71484375,0)" xlink:href="#ch"/></g><path fill="#333" d="M789 20c-398 0-667-293-667-764 0-473 273-766 655-766 315 0 558 198 612 487h-196c-61-191-204-311-415-311-262 0-471 207-471 590 0 380 208 588 482 588 249 0 420-165 425-427H828v-166h572v163c0 370-256 606-611 606" id="ci"/><path fill="#333" d="M409 0L70-1118h191c89 329 165 560 243 925 75-353 154-601 240-925h192c85 325 161 564 235 922 77-354 157-598 244-922h191L1267 0h-179c-86-307-176-590-250-913C763-588 675-308 588 0H409" id="cj"/><g id="P"><use transform="matrix(0.006510416666666667,0,0,0.006510416666666667,0,0)" xlink:href="#ci"/><use transform="matrix(0.006510416666666667,0,0,0.006510416666666667,9.947916666666668,0)" xlink:href="#bO"/><use transform="matrix(0.006510416666666667,0,0,0.006510416666666667,17.434895833333336,0)" xlink:href="#bN"/><use transform="matrix(0.006510416666666667,0,0,0.006510416666666667,21.66666666666667,0)" xlink:href="#bQ"/><use transform="matrix(0.006510416666666667,0,0,0.006510416666666667,29.19921875,0)" xlink:href="#cj"/><use transform="matrix(0.006510416666666667,0,0,0.006510416666666667,40.110677083333336,0)" xlink:href="#bO"/><use transform="matrix(0.006510416666666667,0,0,0.006510416666666667,47.40234375,0)" xlink:href="#ca"/></g><path fill="#333" d="M226 279v-1860h398v153H398V126h226v153H226" id="ck"/><path fill="#333" d="M545 20c-263 0-445-160-445-446v-80h190v80c0 182 102 279 255 279 152 0 254-97 254-279v-1064h190v1064c0 286-181 446-444 446" id="cl"/><path fill="#333" d="M657 26c-323 0-524-166-541-416h195c15 169 171 246 346 246 202 0 356-106 356-265 5-203-294-238-475-293-239-73-380-191-380-389 0-252 224-419 512-419 294 0 499 171 508 396H992c-17-145-151-228-328-228-193 0-321 102-321 242 0 156 175 211 284 241l149 41c160 44 422 134 422 412 0 244-197 432-541 432" id="cm"/><path fill="#333" d="M784 20c-382 0-662-292-662-764 0-473 280-766 662-766s660 293 660 766c0 472-278 764-660 764zm0-176c266 0 475-207 475-588 0-383-209-590-475-590-268 0-477 208-477 590 0 380 209 588 477 588" id="cn"/><path fill="#333" d="M180 0v-1490h224l606 953c40 63 108 177 176 312-27-437-7-821-13-1265h190V0h-226C860-448 622-778 356-1262c27 476 11 792 15 1262H180" id="co"/><path fill="#333" d="M692-1560L212 224H46l480-1784h166" id="cp"/><path fill="#333" d="M180 0v-1490h190v644h782v-644h190V0h-190v-678H370V0H180" id="cq"/><path fill="#333" d="M98-1322v-168h1126v168H757V0H567v-1322H98" id="cr"/><path fill="#333" d="M123 279V126h226v-1554H123v-153h398V279H123" id="cs"/><g id="Q"><use transform="matrix(0.006510416666666667,0,0,0.006510416666666667,0,0)" xlink:href="#ck"/><use transform="matrix(0.006510416666666667,0,0,0.006510416666666667,4.86328125,0)" xlink:href="#cl"/><use transform="matrix(0.006510416666666667,0,0,0.006510416666666667,12.473958333333334,0)" xlink:href="#cm"/><use transform="matrix(0.006510416666666667,0,0,0.006510416666666667,21.028645833333336,0)" xlink:href="#cn"/><use transform="matrix(0.006510416666666667,0,0,0.006510416666666667,31.223958333333336,0)" xlink:href="#co"/><use transform="matrix(0.006510416666666667,0,0,0.006510416666666667,41.26953125,0)" xlink:href="#cp"/><use transform="matrix(0.006510416666666667,0,0,0.006510416666666667,46.07421875,0)" xlink:href="#cq"/><use transform="matrix(0.006510416666666667,0,0,0.006510416666666667,55.98307291666667,0)" xlink:href="#cr"/><use transform="matrix(0.006510416666666667,0,0,0.006510416666666667,64.58984375,0)" xlink:href="#cr"/><use transform="matrix(0.006510416666666667,0,0,0.006510416666666667,73.19661458333333,0)" xlink:href="#cg"/><use transform="matrix(0.006510416666666667,0,0,0.006510416666666667,81.71223958333333,0)" xlink:href="#cs"/></g><path fill="#333" d="M180 0v-1490h908v168H370v486h669v168H370v500h727V0H180" id="ct"/><g id="R"><use transform="matrix(0.006510416666666667,0,0,0.006510416666666667,0,0)" xlink:href="#ct"/><use transform="matrix(0.006510416666666667,0,0,0.006510416666666667,8.014322916666668,0)" xlink:href="#bJ"/><use transform="matrix(0.006510416666666667,0,0,0.006510416666666667,15.891927083333337,0)" xlink:href="#bR"/><use transform="matrix(0.006510416666666667,0,0,0.006510416666666667,20.911458333333336,0)" xlink:href="#bL"/><use transform="matrix(0.006510416666666667,0,0,0.006510416666666667,28.795572916666675,0)" xlink:href="#bN"/><use transform="matrix(0.006510416666666667,0,0,0.006510416666666667,33.22265625000001,0)" xlink:href="#bO"/></g><g id="S"><use transform="matrix(0.006510416666666667,0,0,0.006510416666666667,0,0)" xlink:href="#bM"/><use transform="matrix(0.006510416666666667,0,0,0.006510416666666667,3.229166666666667,0)" xlink:href="#bO"/></g><use transform="matrix(0.006510416666666667,0,0,0.006510416666666667,0,0)" xlink:href="#bO" id="T"/><g id="U"><use transform="matrix(0.006510416666666667,0,0,0.006510416666666667,0,0)" xlink:href="#bM"/><use transform="matrix(0.006510416666666667,0,0,0.006510416666666667,3.229166666666667,0)" xlink:href="#bI"/><use transform="matrix(0.006510416666666667,0,0,0.006510416666666667,11.223958333333334,0)" xlink:href="#bK"/></g><g id="V"><use transform="matrix(0.006510416666666667,0,0,0.006510416666666667,0,0)" xlink:href="#bQ"/><use transform="matrix(0.006510416666666667,0,0,0.006510416666666667,7.7734375,0)" xlink:href="#bJ"/><use transform="matrix(0.006510416666666667,0,0,0.006510416666666667,15.651041666666668,0)" xlink:href="#cc"/><use transform="matrix(0.006510416666666667,0,0,0.006510416666666667,23.815104166666668,0)" xlink:href="#bP"/><use transform="matrix(0.006510416666666667,0,0,0.006510416666666667,31.979166666666668,0)" xlink:href="#bI"/><use transform="matrix(0.006510416666666667,0,0,0.006510416666666667,39.973958333333336,0)" xlink:href="#bT"/><use transform="matrix(0.006510416666666667,0,0,0.006510416666666667,43.203125,0)" xlink:href="#bJ"/><use transform="matrix(0.006510416666666667,0,0,0.006510416666666667,51.080729166666664,0)" xlink:href="#bN"/><use transform="matrix(0.006510416666666667,0,0,0.006510416666666667,55.31249999999999,0)" xlink:href="#bK"/></g><g id="W"><use transform="matrix(0.006510416666666667,0,0,0.006510416666666667,0,0)" xlink:href="#cc"/><use transform="matrix(0.006510416666666667,0,0,0.006510416666666667,8.1640625,0)" xlink:href="#bQ"/></g><g id="X"><use transform="matrix(0.006510416666666667,0,0,0.006510416666666667,0,0)" xlink:href="#ce"/><use transform="matrix(0.006510416666666667,0,0,0.006510416666666667,11.6796875,0)" xlink:href="#bT"/><use transform="matrix(0.006510416666666667,0,0,0.006510416666666667,14.908854166666668,0)" xlink:href="#bX"/><use transform="matrix(0.006510416666666667,0,0,0.006510416666666667,22.526041666666668,0)" xlink:href="#bR"/><use transform="matrix(0.006510416666666667,0,0,0.006510416666666667,27.32421875,0)" xlink:href="#bI"/><use transform="matrix(0.006510416666666667,0,0,0.006510416666666667,35.319010416666664,0)" xlink:href="#bK"/><use transform="matrix(0.006510416666666667,0,0,0.006510416666666667,42.35677083333333,0)" xlink:href="#bQ"/><use transform="matrix(0.006510416666666667,0,0,0.006510416666666667,50.13020833333333,0)" xlink:href="#bR"/><use transform="matrix(0.006510416666666667,0,0,0.006510416666666667,55.35807291666667,0)" xlink:href="#bW"/><use transform="matrix(0.006510416666666667,0,0,0.006510416666666667,62.8515625,0)" xlink:href="#bT"/><use transform="matrix(0.006510416666666667,0,0,0.006510416666666667,66.08072916666667,0)" xlink:href="#bX"/><use transform="matrix(0.006510416666666667,0,0,0.006510416666666667,73.69791666666667,0)" xlink:href="#bT"/><use transform="matrix(0.006510416666666667,0,0,0.006510416666666667,76.92708333333334,0)" xlink:href="#bI"/><use transform="matrix(0.006510416666666667,0,0,0.006510416666666667,84.92187500000001,0)" xlink:href="#bK"/></g><path d="M135 0v-1490h591c327 0 492 160 492 383 0 177-115 286-268 320v15c168 8 326 140 326 361 0 236-176 411-512 411H135zm305-251h264c179 0 258-76 258-189 0-125-97-215-250-215H440v404zm0-613h241c131 0 228-74 228-194 0-109-79-183-222-183H440v377" id="cu"/><g id="Y"><use transform="matrix(0.008173828125000001,0,0,0.008173828125000001,0,0)" xlink:href="#cu"/><use transform="matrix(0.008173828125000001,0,0,0.008173828125000001,11.075537109375002,0)" xlink:href="#aE"/><use transform="matrix(0.008173828125000001,0,0,0.008173828125000001,20.794218750000002,0)" xlink:href="#aO"/><use transform="matrix(0.008173828125000001,0,0,0.008173828125000001,30.169599609375002,0)" xlink:href="#aJ"/></g><g id="Z"><use transform="matrix(0.008173828125000001,0,0,0.008173828125000001,0,0)" xlink:href="#aI"/><use transform="matrix(0.008173828125000001,0,0,0.008173828125000001,10.552412109375002,0)" xlink:href="#aJ"/></g><g id="aa"><use transform="matrix(0.008173828125000001,0,0,0.008173828125000001,0,0)" xlink:href="#aI"/><use transform="matrix(0.008173828125000001,0,0,0.008173828125000001,10.552412109375002,0)" xlink:href="#aE"/><use transform="matrix(0.008173828125000001,0,0,0.008173828125000001,20.271093750000002,0)" xlink:href="#aN"/><use transform="matrix(0.008173828125000001,0,0,0.008173828125000001,26.23798828125,0)" xlink:href="#aL"/><use transform="matrix(0.008173828125000001,0,0,0.008173828125000001,36.50431640625,0)" xlink:href="#aO"/></g><path d="M789 20C394 20 94-260 94-744c0-487 300-766 695-766s695 279 695 766c0 264-89 467-233 597l215 271h-285L1058-29C976 3 886 20 789 20zm-94-532h261l108 139c70-83 110-208 110-371 0-321-154-495-385-495s-385 175-385 495c0 356 184 537 481 482" id="cv"/><path d="M135 0v-1490h305v1237h643V0H135" id="cw"/><g id="ab"><use transform="matrix(0.006510416666666667,0,0,0.006510416666666667,0,0)" xlink:href="#bs"/><use transform="matrix(0.006510416666666667,0,0,0.006510416666666667,5.266927083333334,0)" xlink:href="#bC"/><use transform="matrix(0.006510416666666667,0,0,0.006510416666666667,13.795572916666668,0)" xlink:href="#aL"/><use transform="matrix(0.006510416666666667,0,0,0.006510416666666667,21.97265625,0)" xlink:href="#aO"/><use transform="matrix(0.006510416666666667,0,0,0.006510416666666667,29.440104166666668,0)" xlink:href="#aF"/><use transform="matrix(0.006510416666666667,0,0,0.006510416666666667,37.864583333333336,0)" xlink:href="#aG"/><use transform="matrix(0.006510416666666667,0,0,0.006510416666666667,42.96875,0)" xlink:href="#aJ"/><use transform="matrix(0.006510416666666667,0,0,0.006510416666666667,50.911458333333336,0)" xlink:href="#bx"/><use transform="matrix(0.006510416666666667,0,0,0.006510416666666667,59.641927083333336,0)" xlink:href="#cv"/><use transform="matrix(0.006510416666666667,0,0,0.006510416666666667,70,0)" xlink:href="#cw"/><use transform="matrix(0.006510416666666667,0,0,0.006510416666666667,77.5390625,0)" xlink:href="#by"/></g><path fill="#333" d="M180 0v-1490h190v1322h690V0H180" id="cx"/><g id="ac"><use transform="matrix(0.006510416666666667,0,0,0.006510416666666667,0,0)" xlink:href="#cx"/><use transform="matrix(0.006510416666666667,0,0,0.006510416666666667,7.5390625,0)" xlink:href="#bQ"/><use transform="matrix(0.006510416666666667,0,0,0.006510416666666667,15.3125,0)" xlink:href="#bQ"/></g><g id="ad"><use transform="matrix(0.006510416666666667,0,0,0.006510416666666667,0,0)" xlink:href="#bQ"/><use transform="matrix(0.006510416666666667,0,0,0.006510416666666667,7.7734375,0)" xlink:href="#bK"/><use transform="matrix(0.006510416666666667,0,0,0.006510416666666667,14.811197916666668,0)" xlink:href="#bX"/><use transform="matrix(0.006510416666666667,0,0,0.006510416666666667,22.428385416666668,0)" xlink:href="#bR"/><use transform="matrix(0.006510416666666667,0,0,0.006510416666666667,27.65625,0)" xlink:href="#bT"/><use transform="matrix(0.006510416666666667,0,0,0.006510416666666667,30.885416666666668,0)" xlink:href="#bV"/><use transform="matrix(0.006510416666666667,0,0,0.006510416666666667,39.04947916666667,0)" xlink:href="#bQ"/></g><g id="ae"><use transform="matrix(0.006510416666666667,0,0,0.006510416666666667,0,0)" xlink:href="#bQ"/><use transform="matrix(0.006510416666666667,0,0,0.006510416666666667,7.7734375,0)" xlink:href="#bJ"/></g><path fill="#333" d="M784 20c-382 0-662-292-662-764 0-473 280-766 662-766s660 293 660 766c0 282-99 499-260 629l192 255h-198L1049-33C969 2 880 20 784 20zm-62-486h198l156 205c112-98 183-261 183-483 0-383-209-590-475-590-268 0-477 208-477 590 0 380 209 588 477 588 54 0 106-9 154-25" id="cy"/><g id="af"><use transform="matrix(0.006510416666666667,0,0,0.006510416666666667,0,0)" xlink:href="#ck"/><use transform="matrix(0.006510416666666667,0,0,0.006510416666666667,4.86328125,0)" xlink:href="#cm"/><use transform="matrix(0.006510416666666667,0,0,0.006510416666666667,13.41796875,0)" xlink:href="#cy"/><use transform="matrix(0.006510416666666667,0,0,0.006510416666666667,23.61328125,0)" xlink:href="#cx"/><use transform="matrix(0.006510416666666667,0,0,0.006510416666666667,31.15234375,0)" xlink:href="#cp"/><use transform="matrix(0.006510416666666667,0,0,0.006510416666666667,35.95703125,0)" xlink:href="#cr"/><use transform="matrix(0.006510416666666667,0,0,0.006510416666666667,44.16666666666667,0)" xlink:href="#bH"/><use transform="matrix(0.006510416666666667,0,0,0.006510416666666667,53.90625,0)" xlink:href="#cg"/><use transform="matrix(0.006510416666666667,0,0,0.006510416666666667,62.421875,0)" xlink:href="#cs"/></g><g id="ag"><use transform="matrix(0.006510416666666667,0,0,0.006510416666666667,0,0)" xlink:href="#bx"/><use transform="matrix(0.006510416666666667,0,0,0.006510416666666667,8.73046875,0)" xlink:href="#aJ"/><use transform="matrix(0.006510416666666667,0,0,0.006510416666666667,16.673177083333336,0)" xlink:href="#aG"/><use transform="matrix(0.006510416666666667,0,0,0.006510416666666667,22.311197916666668,0)" xlink:href="#bw"/><use transform="matrix(0.006510416666666667,0,0,0.006510416666666667,30.305989583333336,0)" xlink:href="#aD"/><use transform="matrix(0.006510416666666667,0,0,0.006510416666666667,33.919270833333336,0)" xlink:href="#bo"/><use transform="matrix(0.006510416666666667,0,0,0.006510416666666667,41.76432291666667,0)" xlink:href="#aD"/><use transform="matrix(0.006510416666666667,0,0,0.006510416666666667,45.37760416666667,0)" xlink:href="#aL"/></g><g id="ah"><use transform="matrix(0.006510416666666667,0,0,0.006510416666666667,0,0)" xlink:href="#aI"/><use transform="matrix(0.006510416666666667,0,0,0.006510416666666667,8.404947916666668,0)" xlink:href="#aJ"/></g><g id="ai"><use transform="matrix(0.006510416666666667,0,0,0.006510416666666667,0,0)" xlink:href="#bm"/><use transform="matrix(0.006510416666666667,0,0,0.006510416666666667,8.404947916666668,0)" xlink:href="#aJ"/><use transform="matrix(0.006510416666666667,0,0,0.006510416666666667,16.34765625,0)" xlink:href="#aI"/><use transform="matrix(0.006510416666666667,0,0,0.006510416666666667,24.752604166666668,0)" xlink:href="#aD"/><use transform="matrix(0.006510416666666667,0,0,0.006510416666666667,28.365885416666668,0)" xlink:href="#aI"/><use transform="matrix(0.006510416666666667,0,0,0.006510416666666667,36.770833333333336,0)" xlink:href="#aL"/><use transform="matrix(0.006510416666666667,0,0,0.006510416666666667,44.94791666666667,0)" xlink:href="#aO"/></g><path d="M513 14c-232 0-385-159-385-421v-711h300v659c0 139 76 222 202 222 127 0 217-86 217-234v-647h301V0H864l-4-232C797-74 683 14 513 14" id="cz"/><g id="aj"><use transform="matrix(0.006510416666666667,0,0,0.006510416666666667,0,0)" xlink:href="#bm"/><use transform="matrix(0.006510416666666667,0,0,0.006510416666666667,8.404947916666668,0)" xlink:href="#aG"/><use transform="matrix(0.006510416666666667,0,0,0.006510416666666667,13.509114583333334,0)" xlink:href="#aL"/><use transform="matrix(0.006510416666666667,0,0,0.006510416666666667,21.686197916666668,0)" xlink:href="#aI"/><use transform="matrix(0.006510416666666667,0,0,0.006510416666666667,30.091145833333336,0)" xlink:href="#cz"/><use transform="matrix(0.006510416666666667,0,0,0.006510416666666667,38.391927083333336,0)" xlink:href="#bo"/><use transform="matrix(0.006510416666666667,0,0,0.006510416666666667,46.23697916666667,0)" xlink:href="#aN"/><use transform="matrix(0.006510416666666667,0,0,0.006510416666666667,50.989583333333336,0)" xlink:href="#aL"/><use transform="matrix(0.006510416666666667,0,0,0.006510416666666667,59.16666666666667,0)" xlink:href="#aO"/></g><g id="ak"><use transform="matrix(0.006510416666666667,0,0,0.006510416666666667,0,0)" xlink:href="#cz"/><use transform="matrix(0.006510416666666667,0,0,0.006510416666666667,8.30078125,0)" xlink:href="#aO"/><use transform="matrix(0.006510416666666667,0,0,0.006510416666666667,15.768229166666668,0)" xlink:href="#cz"/><use transform="matrix(0.006510416666666667,0,0,0.006510416666666667,24.069010416666668,0)" xlink:href="#aE"/><use transform="matrix(0.006510416666666667,0,0,0.006510416666666667,31.809895833333336,0)" xlink:href="#aG"/><use transform="matrix(0.006510416666666667,0,0,0.006510416666666667,37.337239583333336,0)" xlink:href="#aD"/><use transform="matrix(0.006510416666666667,0,0,0.006510416666666667,40.950520833333336,0)" xlink:href="#aL"/></g></defs></g></svg>