<svg xmlns="http://www.w3.org/2000/svg" xmlns:xlink="http://www.w3.org/1999/xlink" xmlns:lucid="lucid" width="572.99" height="295.27"><g transform="translate(-239 -261.6271875)" lucid:page-tab-id="0_0"><path d="M0 0h1000v1000H0z" fill="#fff"/><path d="M240 347.16a6 6 0 0 1 6-6h148a6 6 0 0 1 6 6V458.1a6 6 0 0 1-6 6H246a6 6 0 0 1-6-6z" stroke="#000" stroke-width="2" fill="#fff"/><use xlink:href="#a" transform="matrix(1,0,0,1,245,346.16234375) translate(41.27604166666666 17.66362847222222)"/><use xlink:href="#b" transform="matrix(1,0,0,1,245,346.16234375) translate(43.059895833333336 39.170572916666664)"/><use xlink:href="#c" transform="matrix(1,0,0,1,245,346.16234375) translate(75 58.52994791666667)"/><use xlink:href="#d" transform="matrix(1,0,0,1,245,346.16234375) translate(14.249674479166664 75.73654513888889)"/><use xlink:href="#e" transform="matrix(1,0,0,1,245,346.16234375) translate(53.91981336805556 75.73654513888889)"/><use xlink:href="#f" transform="matrix(1,0,0,1,245,346.16234375) translate(110.41395399305554 75.73654513888889)"/><use xlink:href="#g" transform="matrix(1,0,0,1,245,346.16234375) translate(126.58148871527777 75.73654513888889)"/><use xlink:href="#h" transform="matrix(1,0,0,1,245,346.16234375) translate(28.797743055555557 91.86935763888889)"/><use xlink:href="#i" transform="matrix(1,0,0,1,245,346.16234375) translate(72.31987847222223 91.86935763888889)"/><use xlink:href="#j" transform="matrix(1,0,0,1,245,346.16234375) translate(75 110.15494791666667)"/><path d="M360 302.63c0 22.1-17.9 40-40 40s-40-17.9-40-40 17.9-40 40-40 40 17.9 40 40zM651 336.07a6 6 0 0 1 6-6h148a6 6 0 0 1 6 6v133.1a6 6 0 0 1-6 6H657a6 6 0 0 1-6-6z" stroke="#000" stroke-width="2" fill="#fff"/><g><use xlink:href="#k" transform="matrix(1,0,0,1,655.9930729166667,335.07103515625) translate(34.40538194444444 17.75347222222222)"/><use xlink:href="#l" transform="matrix(1,0,0,1,655.9930729166667,335.07103515625) translate(3.056640625 34.95833333333333)"/><use xlink:href="#m" transform="matrix(1,0,0,1,655.9930729166667,335.07103515625) translate(63.655598958333336 34.95833333333333)"/><use xlink:href="#n" transform="matrix(1,0,0,1,655.9930729166667,335.07103515625) translate(83.16080729166667 34.95833333333333)"/><use xlink:href="#o" transform="matrix(1,0,0,1,655.9930729166667,335.07103515625) translate(75 48.93836805555556)"/><use xlink:href="#p" transform="matrix(1,0,0,1,655.9930729166667,335.07103515625) translate(0.6781684027777715 65.74338107638889)"/><use xlink:href="#q" transform="matrix(1,0,0,1,655.9930729166667,335.07103515625) translate(60.53602430555555 65.74338107638889)"/><use xlink:href="#r" transform="matrix(1,0,0,1,655.9930729166667,335.07103515625) translate(83.51236979166666 65.74338107638889)"/><use xlink:href="#s" transform="matrix(1,0,0,1,655.9930729166667,335.07103515625) translate(136.18706597222223 65.74338107638889)"/><use xlink:href="#t" transform="matrix(1,0,0,1,655.9930729166667,335.07103515625) translate(12.570529513888893 82.54839409722223)"/><use xlink:href="#u" transform="matrix(1,0,0,1,655.9930729166667,335.07103515625) translate(61.149088541666664 82.54839409722223)"/><use xlink:href="#v" transform="matrix(1,0,0,1,655.9930729166667,335.07103515625) translate(77.55533854166666 82.54839409722223)"/><use xlink:href="#w" transform="matrix(1,0,0,1,655.9930729166667,335.07103515625) translate(0.21701388888888573 99.35340711805557)"/><use xlink:href="#x" transform="matrix(1,0,0,1,655.9930729166667,335.07103515625) translate(49.381510416666664 99.35340711805557)"/><use xlink:href="#y" transform="matrix(1,0,0,1,655.9930729166667,335.07103515625) translate(91.27061631944444 99.35340711805557)"/><use xlink:href="#z" transform="matrix(1,0,0,1,655.9930729166667,335.07103515625) translate(136.50173611111111 99.35340711805557)"/><use xlink:href="#A" transform="matrix(1,0,0,1,655.9930729166667,335.07103515625) translate(4.793294270833343 116.15842013888891)"/><use xlink:href="#B" transform="matrix(1,0,0,1,655.9930729166667,335.07103515625) translate(36.054144965277786 116.15842013888891)"/><use xlink:href="#C" transform="matrix(1,0,0,1,655.9930729166667,335.07103515625) translate(45.423719618055564 116.15842013888891)"/><use xlink:href="#D" transform="matrix(1,0,0,1,655.9930729166667,335.07103515625) translate(112.9150390625 116.15842013888891)"/><use xlink:href="#E" transform="matrix(1,0,0,1,655.9930729166667,335.07103515625) translate(47.39312065972223 132.96343315972226)"/><use xlink:href="#F" transform="matrix(1,0,0,1,655.9930729166667,335.07103515625) translate(63.65288628472223 132.96343315972226)"/></g><path d="M401.5 402.63h5.16m5.16 0h10.3m5.17 0h10.3m5.16 0h10.32m5.16 0h10.3m5.17 0h10.33m5.16 0h10.3m5.16 0h10.32m5.15 0h10.32m5.16 0h10.32m5.16 0h10.32m5.15 0h10.32m5.16 0h10.32m5.15 0h10.32m5.16 0h10.3m5.17 0h5.16" stroke="#3a414a" fill="none"/><path d="M401.5 403.1h-.5v-.95h.5z" stroke="#3a414a" stroke-width=".05" fill="#3a414a"/><path d="M648.38 402.63l-14.27 4.63V398z" stroke="#3a414a" fill="#3a414a"/><g><use xlink:href="#G" transform="matrix(1,0,0,1,466.54471354166674,363.135) translate(0.005000000000002558 12.916666666666668)"/><use xlink:href="#H" transform="matrix(1,0,0,1,466.54471354166674,363.135) translate(63.46854166666667 12.916666666666668)"/><use xlink:href="#I" transform="matrix(1,0,0,1,466.54471354166674,363.135) translate(5.447708333333324 32.27604166666667)"/><use xlink:href="#J" transform="matrix(1,0,0,1,466.54471354166674,363.135) translate(16.69119791666666 32.27604166666667)"/><use xlink:href="#K" transform="matrix(1,0,0,1,466.54471354166674,363.135) translate(61.938593749999995 32.27604166666667)"/></g><path d="M400 526a6 6 0 0 1 6-6h239a6 6 0 0 1 6 6v24.9a6 6 0 0 1-6 6H406a6 6 0 0 1-6-6z" fill="none"/><g><use xlink:href="#L" transform="matrix(1,0,0,1,405,525) translate(0.008463541666657193 21.58376736111111)"/><use xlink:href="#M" transform="matrix(1,0,0,1,405,525) translate(109.11219618055554 21.58376736111111)"/><use xlink:href="#N" transform="matrix(1,0,0,1,405,525) translate(141.62087673611111 21.58376736111111)"/></g><defs><path d="M750 21c-371 0-615-218-615-544v-967h305v942c0 174 123 299 310 299s309-125 309-299v-942h306v967c0 326-247 544-615 544" id="O"/><path d="M572 22C302 22 117-98 78-306l279-48c29 105 101 156 224 156 114 0 185-48 185-115 0-118-228-130-337-155-215-49-322-150-322-317 0-215 187-347 470-347 265 0 424 116 466 298l-266 47c-24-76-87-130-196-130-98 0-174 46-174 113 0 56 38 95 144 117l201 40c216 44 320 143 320 302 0 220-207 367-500 367" id="P"/><path d="M513 14c-232 0-385-159-385-421v-711h300v659c0 139 76 222 202 222 127 0 217-86 217-234v-647h301V0H864l-4-232C797-74 683 14 513 14" id="Q"/><path d="M440 22C227 22 68-92 68-313c0-250 202-322 422-343 195-21 271-24 271-105 0-95-63-149-175-149-116 0-187 57-211 129l-275-46c57-194 237-305 487-305 240 0 474 108 474 379V0H777v-155h-10C713-51 605 22 440 22zm85-211c140 0 238-93 238-211v-121c-37 26-156 42-222 51-111 16-185 59-185 149 0 87 70 132 169 132" id="R"/><path d="M128 0v-1118h290v195h12c54-169 184-238 367-200v268c-27-8-86-15-130-15-138 0-239 95-239 234V0H128" id="S"/><path d="M128 0v-1118h300V0H128zm150-1264c-91 0-165-68-165-154 0-85 74-154 165-154 90 0 165 69 165 154 0 86-75 154-165 154" id="T"/><path d="M628 22C291 22 81-210 81-554c0-346 210-578 547-578 336 0 547 232 547 578 0 344-211 576-547 576zm0-236c160 0 242-146 242-341 0-197-82-341-242-341S387-753 387-555c0 195 81 341 241 341" id="U"/><g id="a"><use transform="matrix(0.008680555555555556,0,0,0.008680555555555556,0,0)" xlink:href="#O"/><use transform="matrix(0.008680555555555556,0,0,0.008680555555555556,13.012152777777779,0)" xlink:href="#P"/><use transform="matrix(0.008680555555555556,0,0,0.008680555555555556,22.96875,0)" xlink:href="#Q"/><use transform="matrix(0.008680555555555556,0,0,0.008680555555555556,34.036458333333336,0)" xlink:href="#R"/><use transform="matrix(0.008680555555555556,0,0,0.008680555555555556,44.35763888888889,0)" xlink:href="#S"/><use transform="matrix(0.008680555555555556,0,0,0.008680555555555556,51.727430555555564,0)" xlink:href="#T"/><use transform="matrix(0.008680555555555556,0,0,0.008680555555555556,56.5451388888889,0)" xlink:href="#U"/></g><path d="M182 279v-1860h488v228H471V51h199v228H182" id="V"/><path d="M135 0v-1490h581c339 0 533 210 533 503 0 295-197 500-540 500H440V0H135zm305-733h220c186 0 274-104 274-254s-88-251-275-251H440v505" id="W"/><path d="M633 22C291 22 81-200 81-553c0-345 210-579 537-579 292 0 525 185 525 567v84H378c7 183 109 277 260 277 105 0 184-46 216-132l272 51C1071-99 893 22 633 22zM380-669h474c-15-146-94-237-233-237-143 0-229 99-241 237" id="X"/><path d="M428-647V0H128v-1118h283l4 231c63-156 176-245 348-245 232 0 384 159 384 421V0H847v-659c0-139-76-222-202-222-128 0-217 86-217 234" id="Y"/><path d="M102 279V51h199v-1404H102v-228h489V279H102" id="Z"/><g id="b"><use transform="matrix(0.006510416666666667,0,0,0.006510416666666667,0,0)" xlink:href="#V"/><use transform="matrix(0.006510416666666667,0,0,0.006510416666666667,5.266927083333334,0)" xlink:href="#W"/><use transform="matrix(0.006510416666666667,0,0,0.006510416666666667,13.795572916666668,0)" xlink:href="#X"/><use transform="matrix(0.006510416666666667,0,0,0.006510416666666667,21.73828125,0)" xlink:href="#S"/><use transform="matrix(0.006510416666666667,0,0,0.006510416666666667,27.16796875,0)" xlink:href="#P"/><use transform="matrix(0.006510416666666667,0,0,0.006510416666666667,34.635416666666664,0)" xlink:href="#U"/><use transform="matrix(0.006510416666666667,0,0,0.006510416666666667,42.8125,0)" xlink:href="#Y"/><use transform="matrix(0.006510416666666667,0,0,0.006510416666666667,51.11328125,0)" xlink:href="#R"/><use transform="matrix(0.006510416666666667,0,0,0.006510416666666667,58.85416666666667,0)" xlink:href="#Z"/></g><path d="M783 20c-382 0-661-292-661-764 0-473 279-766 661-766 302 0 548 182 601 489h-190c-42-204-217-313-411-313-268 0-476 208-476 590 0 381 209 588 476 588 195 0 369-110 411-313h190c-52 303-296 489-601 489" id="aa"/><path d="M338-1490V0H158v-1490h180" id="ab"/><path d="M158 0v-1118h180V0H158zm91-1301c-68 0-125-53-125-119s57-119 125-119c69 0 126 53 126 119s-57 119-126 119" id="ac"/><path d="M628 24c-324 0-524-230-524-574 0-343 198-582 503-582 237 0 487 146 487 559v75H286c9 234 145 362 343 362 132 0 231-58 273-172l174 48C1024-91 857 24 628 24zM287-650h624c-17-190-120-322-304-322-192 0-309 151-320 322" id="ad"/><path d="M338-670V0H158v-1118h173l1 207c72-158 192-221 342-221 226 0 378 139 378 422V0H872v-695c0-172-96-275-252-275-161 0-282 109-282 300" id="ae"/><path d="M598-1118v154H368v674c0 100 37 144 132 144 23 0 62-6 92-12L629-6c-37 13-88 20-134 20-193 0-307-107-307-290v-688H20v-154h168v-266h180v266h230" id="af"/><g id="d"><use transform="matrix(0.005425347222222222,0,0,0.005425347222222222,0,0)" xlink:href="#aa"/><use transform="matrix(0.005425347222222222,0,0,0.005425347222222222,8.116319444444445,0)" xlink:href="#ab"/><use transform="matrix(0.005425347222222222,0,0,0.005425347222222222,10.807291666666668,0)" xlink:href="#ac"/><use transform="matrix(0.005425347222222222,0,0,0.005425347222222222,13.49826388888889,0)" xlink:href="#ad"/><use transform="matrix(0.005425347222222222,0,0,0.005425347222222222,19.97612847222222,0)" xlink:href="#ae"/><use transform="matrix(0.005425347222222222,0,0,0.005425347222222222,26.54079861111111,0)" xlink:href="#af"/><use transform="matrix(0.005425347222222222,0,0,0.005425347222222222,30.06727430555556,0)" xlink:href="#ad"/></g><path d="M158 0v-1118h174v172h12c41-113 157-188 290-188 26 0 70 2 91 3v181c-11-2-60-10-108-10-161 0-279 109-279 260V0H158" id="ag"/><path d="M611 442c-248 0-391-105-460-228l146-94c47 65 117 165 314 165 178 0 307-82 307-266v-224h-17C863-141 792-18 576-18c-268 0-472-195-472-546 0-346 197-568 476-568 216 0 288 133 326 193h17v-179h175V29c0 289-215 413-487 413zm-5-620c203 0 314-146 314-390 0-237-108-403-314-403-213 0-319 180-319 403 0 230 109 390 319 390" id="ah"/><path d="M538 24C308 24 148-78 108-271l171-41c32 123 123 178 257 178 156 0 256-77 256-169 0-77-54-128-164-154l-186-44c-203-48-300-148-300-305 0-192 176-326 414-326 230 0 351 112 402 269l-163 42c-31-80-94-158-238-158-133 0-233 69-233 162 0 83 57 129 188 160l169 40c203 48 298 149 298 302 0 196-179 339-441 339" id="ai"/><path d="M471 26C259 26 90-98 90-318c0-256 228-303 435-329 202-27 287-16 287-108 0-139-79-219-234-219-161 0-248 86-283 164l-173-57c86-203 278-265 451-265 150 0 419 46 419 395V0H815v-152h-12C765-73 660 26 471 26zm31-159c199 0 310-134 310-271v-155c-30 35-226 55-295 64-131 17-246 59-246 186 0 116 97 176 231 176" id="aj"/><path d="M577 24c-279 0-473-224-473-580 0-354 195-576 474-576 218 0 287 134 324 193h14v-551h180V0H922v-173h-20C865-111 790 24 577 24zm27-161c203 0 314-172 314-421 0-247-108-413-314-413-212 0-317 181-317 413 0 235 108 421 317 421" id="ak"/><path d="M613 24c-304 0-509-231-509-576 0-350 205-580 509-580 305 0 511 230 511 580 0 345-206 576-511 576zm0-161c226 0 329-195 329-415 0-222-103-419-329-419-223 0-326 196-326 419 0 220 103 415 326 415" id="al"/><g id="e"><use transform="matrix(0.005425347222222222,0,0,0.005425347222222222,0,0)" xlink:href="#ag"/><use transform="matrix(0.005425347222222222,0,0,0.005425347222222222,3.9984809027777777,0)" xlink:href="#ad"/><use transform="matrix(0.005425347222222222,0,0,0.005425347222222222,10.47634548611111,0)" xlink:href="#ah"/><use transform="matrix(0.005425347222222222,0,0,0.005425347222222222,17.29058159722222,0)" xlink:href="#ac"/><use transform="matrix(0.005425347222222222,0,0,0.005425347222222222,19.981553819444443,0)" xlink:href="#ai"/><use transform="matrix(0.005425347222222222,0,0,0.005425347222222222,25.846354166666664,0)" xlink:href="#af"/><use transform="matrix(0.005425347222222222,0,0,0.005425347222222222,29.481336805555554,0)" xlink:href="#ag"/><use transform="matrix(0.005425347222222222,0,0,0.005425347222222222,33.664279513888886,0)" xlink:href="#aj"/><use transform="matrix(0.005425347222222222,0,0,0.005425347222222222,39.90342881944444,0)" xlink:href="#ak"/><use transform="matrix(0.005425347222222222,0,0,0.005425347222222222,46.70681423611111,0)" xlink:href="#al"/></g><g id="f"><use transform="matrix(0.005425347222222222,0,0,0.005425347222222222,0,0)" xlink:href="#ad"/><use transform="matrix(0.005425347222222222,0,0,0.005425347222222222,6.477864583333333,0)" xlink:href="#ae"/></g><g id="g"><use transform="matrix(0.005425347222222222,0,0,0.005425347222222222,0,0)" xlink:href="#ad"/><use transform="matrix(0.005425347222222222,0,0,0.005425347222222222,6.477864583333333,0)" xlink:href="#ab"/></g><path d="M158 0v-1118h175l1 205c55-151 181-225 313-225 147 0 245 90 285 228 53-141 190-228 352-228 194 0 352 125 352 384V0h-181v-749c0-161-105-225-225-225-151 0-243 103-243 244V0H807v-767c0-124-93-207-219-207-131 0-250 92-250 270V0H158" id="am"/><g id="h"><use transform="matrix(0.005425347222222222,0,0,0.005425347222222222,0,0)" xlink:href="#ai"/><use transform="matrix(0.005425347222222222,0,0,0.005425347222222222,5.864800347222222,0)" xlink:href="#ac"/><use transform="matrix(0.005425347222222222,0,0,0.005425347222222222,8.555772569444445,0)" xlink:href="#ai"/><use transform="matrix(0.005425347222222222,0,0,0.005425347222222222,14.420572916666668,0)" xlink:href="#af"/><use transform="matrix(0.005425347222222222,0,0,0.005425347222222222,17.94704861111111,0)" xlink:href="#ad"/><use transform="matrix(0.005425347222222222,0,0,0.005425347222222222,24.424913194444443,0)" xlink:href="#am"/><use transform="matrix(0.005425347222222222,0,0,0.005425347222222222,34.15798611111111,0)" xlink:href="#aj"/></g><path d="M180 0v-1490h224l606 953c40 63 108 177 176 312-27-437-7-821-13-1265h190V0h-226C860-448 622-778 356-1262c27 476 11 792 15 1262H180" id="an"/><path d="M481 0L54-1118h197c107 314 236 620 325 951 87-331 217-637 324-951h197L670 0H481" id="ao"/><path d="M180 0v-1490h190v1322h690V0H180" id="ap"/><path d="M158 0v-1490h180v865h22l478-493h223L593-638 1096 0H865L456-523 338-412V0H158" id="aq"/><g id="i"><use transform="matrix(0.005425347222222222,0,0,0.005425347222222222,0,0)" xlink:href="#an"/><use transform="matrix(0.005425347222222222,0,0,0.005425347222222222,8.37131076388889,0)" xlink:href="#al"/><use transform="matrix(0.005425347222222222,0,0,0.005425347222222222,14.816623263888888,0)" xlink:href="#ao"/><use transform="matrix(0.005425347222222222,0,0,0.005425347222222222,21.006944444444446,0)" xlink:href="#aj"/><use transform="matrix(0.005425347222222222,0,0,0.005425347222222222,27.24609375,0)" xlink:href="#ap"/><use transform="matrix(0.005425347222222222,0,0,0.005425347222222222,33.528645833333336,0)" xlink:href="#ac"/><use transform="matrix(0.005425347222222222,0,0,0.005425347222222222,36.21961805555556,0)" xlink:href="#ae"/><use transform="matrix(0.005425347222222222,0,0,0.005425347222222222,42.78428819444444,0)" xlink:href="#aq"/></g><path d="M135 0v-1490h340l471 754c59 97 122 210 187 365-32-387-14-721-19-1119h312V0h-341C855-382 627-689 427-1113c32 420 16 695 20 1113H135" id="ar"/><path d="M443 0L31-1118h319c90 293 199 572 268 885 66-313 175-593 264-885h315L784 0H443" id="as"/><path d="M135 0v-1490h305v1237h643V0H135" id="at"/><path d="M128 0v-1490h300v802h17l366-430h347L740-633 1179 0H826L514-456l-86 97V0H128" id="au"/><g id="k"><use transform="matrix(0.008680555555555556,0,0,0.008680555555555556,0,0)" xlink:href="#ar"/><use transform="matrix(0.008680555555555556,0,0,0.008680555555555556,13.550347222222223,0)" xlink:href="#U"/><use transform="matrix(0.008680555555555556,0,0,0.008680555555555556,24.131944444444446,0)" xlink:href="#as"/><use transform="matrix(0.008680555555555556,0,0,0.008680555555555556,34.61805555555556,0)" xlink:href="#R"/><use transform="matrix(0.008680555555555556,0,0,0.008680555555555556,44.939236111111114,0)" xlink:href="#at"/><use transform="matrix(0.008680555555555556,0,0,0.008680555555555556,54.99131944444445,0)" xlink:href="#T"/><use transform="matrix(0.008680555555555556,0,0,0.008680555555555556,59.809027777777786,0)" xlink:href="#Y"/><use transform="matrix(0.008680555555555556,0,0,0.008680555555555556,70.87673611111111,0)" xlink:href="#au"/></g><path d="M681 22C323 22 94-145 85-462h297c10 151 131 226 296 226 163 0 271-77 271-190 0-102-95-149-257-189l-164-41c-252-61-403-188-403-405 0-269 236-449 560-449 330 0 546 183 551 445H941c-11-119-106-188-259-188-156 0-244 72-244 172-3 156 226 185 373 221 250 61 445 186 445 436 0 271-213 446-575 446" id="av"/><path d="M683-1118v229H474v562c0 71 29 104 102 104 23 0 73-7 95-13l43 225C647 9 580 16 520 16 296 16 174-96 174-301v-588H20v-229h154v-266h300v266h209" id="aw"/><path d="M128 0v-1118h278l12 217c60-163 185-234 319-234 143 0 236 81 288 251 63-172 205-251 359-251 205 0 357 138 357 381V0h-301v-697c0-126-76-187-177-187-114 0-184 79-184 196V0H789v-705c0-109-72-179-174-179-106 0-187 74-187 208V0H128" id="ax"/><g id="l"><use transform="matrix(0.006510416666666667,0,0,0.006510416666666667,0,0)" xlink:href="#V"/><use transform="matrix(0.006510416666666667,0,0,0.006510416666666667,5.026041666666667,0)" xlink:href="#av"/><use transform="matrix(0.006510416666666667,0,0,0.006510416666666667,13.756510416666668,0)" xlink:href="#T"/><use transform="matrix(0.006510416666666667,0,0,0.006510416666666667,17.369791666666668,0)" xlink:href="#P"/><use transform="matrix(0.006510416666666667,0,0,0.006510416666666667,24.837239583333336,0)" xlink:href="#aw"/><use transform="matrix(0.006510416666666667,0,0,0.006510416666666667,29.58984375,0)" xlink:href="#X"/><use transform="matrix(0.006510416666666667,0,0,0.006510416666666667,37.532552083333336,0)" xlink:href="#ax"/><use transform="matrix(0.006510416666666667,0,0,0.006510416666666667,49.700520833333336,0)" xlink:href="#R"/></g><path d="M537 19C279 19 81-185 81-557c0-382 206-575 454-575 190 0 278 113 318 202h10v-560h300V0H868v-179h-15C812-89 719 19 537 19zm92-241c153 0 240-134 240-336 0-203-86-334-240-334-158 0-240 138-240 334 0 197 84 336 240 336" id="ay"/><g id="m"><use transform="matrix(0.006510416666666667,0,0,0.006510416666666667,0,0)" xlink:href="#ay"/><use transform="matrix(0.006510416666666667,0,0,0.006510416666666667,8.404947916666668,0)" xlink:href="#X"/></g><path d="M750-1118v229H516V0H217v-889H20v-229h197v-86c0-238 156-356 363-356 94 0 178 20 215 31l-54 226c-25-7-61-15-100-15-123-3-131 84-125 200h234" id="az"/><path d="M361 0L31-1118h315c68 295 127 523 188 845 63-317 128-551 199-845h276c71 296 131 525 196 846 57-321 119-552 186-846h319L1378 0h-305c-73-261-148-486-204-771C813-484 740-261 666 0H361" id="aA"/><g id="n"><use transform="matrix(0.006510416666666667,0,0,0.006510416666666667,0,0)" xlink:href="#av"/><use transform="matrix(0.006510416666666667,0,0,0.006510416666666667,8.73046875,0)" xlink:href="#U"/><use transform="matrix(0.006510416666666667,0,0,0.006510416666666667,16.907552083333336,0)" xlink:href="#az"/><use transform="matrix(0.006510416666666667,0,0,0.006510416666666667,21.68619791666667,0)" xlink:href="#aw"/><use transform="matrix(0.006510416666666667,0,0,0.006510416666666667,26.8359375,0)" xlink:href="#aA"/><use transform="matrix(0.006510416666666667,0,0,0.006510416666666667,38.13802083333334,0)" xlink:href="#R"/><use transform="matrix(0.006510416666666667,0,0,0.006510416666666667,45.87890625000001,0)" xlink:href="#S"/><use transform="matrix(0.006510416666666667,0,0,0.006510416666666667,50.98307291666667,0)" xlink:href="#X"/><use transform="matrix(0.006510416666666667,0,0,0.006510416666666667,58.75651041666667,0)" xlink:href="#Z"/></g><path d="M180 0v-1490h510c348 0 508 209 508 474 0 266-160 477-507 477H370V0H180zm190-706h312c236 0 327-133 327-310 0-176-91-307-329-307H370v617" id="aB"/><path d="M678-1118v154H420V0H240v-964H20v-154h220v-149c0-194 155-293 318-293 85 0 141 18 168 30l-50 154c-19-6-47-17-97-17-111 0-159 58-159 166v109h258" id="aC"/><g id="p"><use transform="matrix(0.005425347222222222,0,0,0.005425347222222222,0,0)" xlink:href="#aB"/><use transform="matrix(0.005425347222222222,0,0,0.005425347222222222,7.096354166666666,0)" xlink:href="#ab"/><use transform="matrix(0.005425347222222222,0,0,0.005425347222222222,9.78732638888889,0)" xlink:href="#aj"/><use transform="matrix(0.005425347222222222,0,0,0.005425347222222222,16.026475694444443,0)" xlink:href="#af"/><use transform="matrix(0.005425347222222222,0,0,0.005425347222222222,19.715711805555554,0)" xlink:href="#aj"/><use transform="matrix(0.005425347222222222,0,0,0.005425347222222222,25.954861111111104,0)" xlink:href="#aC"/><use transform="matrix(0.005425347222222222,0,0,0.005425347222222222,29.74175347222222,0)" xlink:href="#al"/><use transform="matrix(0.005425347222222222,0,0,0.005425347222222222,36.40407986111111,0)" xlink:href="#ag"/><use transform="matrix(0.005425347222222222,0,0,0.005425347222222222,40.76063368055556,0)" xlink:href="#am"/><use transform="matrix(0.005425347222222222,0,0,0.005425347222222222,50.49370659722222,0)" xlink:href="#aj"/></g><path d="M1096 418H916v-591h-14C865-111 790 24 577 24c-279 0-473-224-473-580 0-354 195-576 474-576 218 0 287 134 324 193h20v-179h174V418zM604-137c203 0 314-172 314-421 0-247-108-413-314-413-212 0-317 181-317 413 0 235 108 421 317 421" id="aD"/><path d="M537 14c-226 0-379-139-379-422v-710h180v695c0 172 97 275 253 275 160 0 281-109 281-300v-670h181V0H879v-209C806-46 684 14 537 14" id="aE"/><g id="q"><use transform="matrix(0.005425347222222222,0,0,0.005425347222222222,0,0)" xlink:href="#aD"/><use transform="matrix(0.005425347222222222,0,0,0.005425347222222222,6.803385416666666,0)" xlink:href="#aE"/><use transform="matrix(0.005425347222222222,0,0,0.005425347222222222,13.373480902777777,0)" xlink:href="#ad"/></g><path d="M126 0v-134l627-806v-11H146v-167h839v143L376-178v11h629V0H126" id="aF"/><g id="r"><use transform="matrix(0.005425347222222222,0,0,0.005425347222222222,0,0)" xlink:href="#ao"/><use transform="matrix(0.005425347222222222,0,0,0.005425347222222222,6.244574652777778,0)" xlink:href="#ac"/><use transform="matrix(0.005425347222222222,0,0,0.005425347222222222,8.935546875,0)" xlink:href="#ai"/><use transform="matrix(0.005425347222222222,0,0,0.005425347222222222,14.800347222222221,0)" xlink:href="#aE"/><use transform="matrix(0.005425347222222222,0,0,0.005425347222222222,21.370442708333332,0)" xlink:href="#aj"/><use transform="matrix(0.005425347222222222,0,0,0.005425347222222222,27.60959201388889,0)" xlink:href="#ab"/><use transform="matrix(0.005425347222222222,0,0,0.005425347222222222,30.300564236111104,0)" xlink:href="#ac"/><use transform="matrix(0.005425347222222222,0,0,0.005425347222222222,32.99153645833333,0)" xlink:href="#aF"/><use transform="matrix(0.005425347222222222,0,0,0.005425347222222222,39.127604166666664,0)" xlink:href="#aj"/><use transform="matrix(0.005425347222222222,0,0,0.005425347222222222,45.36675347222222,0)" xlink:href="#ag"/></g><g id="s"><use transform="matrix(0.005425347222222222,0,0,0.005425347222222222,0,0)" xlink:href="#aE"/><use transform="matrix(0.005425347222222222,0,0,0.005425347222222222,6.570095486111111,0)" xlink:href="#ae"/></g><path d="M613 24c-304 0-509-231-509-576 0-350 205-580 509-580 216 0 392 114 453 309l-173 49c-33-115-133-197-280-197-223 0-326 196-326 419 0 220 103 415 326 415 150 0 252-85 285-206l172 49C1010-95 832 24 613 24" id="aG"/><path d="M471 26C259 26 90-98 90-318c0-256 228-303 435-329 202-27 287-16 287-108 0-139-79-219-234-219-161 0-248 86-283 164l-173-57c86-203 278-265 451-265 150 0 419 46 419 395V0H815v-152h-12C765-73 660 26 471 26zm31-159c199 0 310-134 310-271v-155c-30 35-226 55-295 64-131 17-246 59-246 186 0 116 97 176 231 176zm-23-1131l140-294h201l-194 294H479" id="aH"/><g id="t"><use transform="matrix(0.005425347222222222,0,0,0.005425347222222222,0,0)" xlink:href="#aG"/><use transform="matrix(0.005425347222222222,0,0,0.005425347222222222,6.456163194444445,0)" xlink:href="#aj"/><use transform="matrix(0.005425347222222222,0,0,0.005425347222222222,12.6953125,0)" xlink:href="#af"/><use transform="matrix(0.005425347222222222,0,0,0.005425347222222222,16.38454861111111,0)" xlink:href="#aH"/><use transform="matrix(0.005425347222222222,0,0,0.005425347222222222,22.623697916666664,0)" xlink:href="#ab"/><use transform="matrix(0.005425347222222222,0,0,0.005425347222222222,25.31467013888889,0)" xlink:href="#al"/><use transform="matrix(0.005425347222222222,0,0,0.005425347222222222,31.976996527777775,0)" xlink:href="#ah"/><use transform="matrix(0.005425347222222222,0,0,0.005425347222222222,38.791232638888886,0)" xlink:href="#al"/></g><g id="u"><use transform="matrix(0.005425347222222222,0,0,0.005425347222222222,0,0)" xlink:href="#ak"/><use transform="matrix(0.005425347222222222,0,0,0.005425347222222222,6.803385416666666,0)" xlink:href="#ad"/></g><path d="M338-670V0H158v-1490h180v566c73-149 190-208 336-208 226 0 379 139 379 422V0H872v-695c0-172-96-275-252-275-161 0-282 109-282 300" id="aI"/><path d="M677 24c-213 0-288-135-325-197h-20V0H158v-1490h180v551h14c37-59 106-193 324-193 279 0 474 222 474 576 0 356-194 580-473 580zm-27-161c209 0 317-186 317-421 0-232-105-413-317-413-206 0-314 166-314 413 0 249 111 421 314 421" id="aJ"/><g id="v"><use transform="matrix(0.005425347222222222,0,0,0.005425347222222222,0,0)" xlink:href="#aI"/><use transform="matrix(0.005425347222222222,0,0,0.005425347222222222,6.570095486111111,0)" xlink:href="#aj"/><use transform="matrix(0.005425347222222222,0,0,0.005425347222222222,12.809244791666666,0)" xlink:href="#aJ"/><use transform="matrix(0.005425347222222222,0,0,0.005425347222222222,19.612630208333332,0)" xlink:href="#ac"/><use transform="matrix(0.005425347222222222,0,0,0.005425347222222222,22.303602430555554,0)" xlink:href="#ab"/><use transform="matrix(0.005425347222222222,0,0,0.005425347222222222,24.99457465277778,0)" xlink:href="#ac"/><use transform="matrix(0.005425347222222222,0,0,0.005425347222222222,27.685546874999993,0)" xlink:href="#ak"/><use transform="matrix(0.005425347222222222,0,0,0.005425347222222222,34.488932291666664,0)" xlink:href="#aj"/><use transform="matrix(0.005425347222222222,0,0,0.005425347222222222,40.72808159722222,0)" xlink:href="#ak"/><use transform="matrix(0.005425347222222222,0,0,0.005425347222222222,47.531467013888886,0)" xlink:href="#ad"/><use transform="matrix(0.005425347222222222,0,0,0.005425347222222222,54.00933159722222,0)" xlink:href="#ai"/></g><path d="M128 359l88-567h206L266 359H128" id="aK"/><g id="w"><use transform="matrix(0.005425347222222222,0,0,0.005425347222222222,0,0)" xlink:href="#ai"/><use transform="matrix(0.005425347222222222,0,0,0.005425347222222222,5.864800347222222,0)" xlink:href="#al"/><use transform="matrix(0.005425347222222222,0,0,0.005425347222222222,12.52712673611111,0)" xlink:href="#aG"/><use transform="matrix(0.005425347222222222,0,0,0.005425347222222222,18.87478298611111,0)" xlink:href="#ac"/><use transform="matrix(0.005425347222222222,0,0,0.005425347222222222,21.565755208333332,0)" xlink:href="#aj"/><use transform="matrix(0.005425347222222222,0,0,0.005425347222222222,27.80490451388889,0)" xlink:href="#ab"/><use transform="matrix(0.005425347222222222,0,0,0.005425347222222222,30.495876736111104,0)" xlink:href="#ad"/><use transform="matrix(0.005425347222222222,0,0,0.005425347222222222,36.97374131944444,0)" xlink:href="#ai"/><use transform="matrix(0.005425347222222222,0,0,0.005425347222222222,42.838541666666664,0)" xlink:href="#aK"/></g><g id="x"><use transform="matrix(0.005425347222222222,0,0,0.005425347222222222,0,0)" xlink:href="#ag"/><use transform="matrix(0.005425347222222222,0,0,0.005425347222222222,3.9984809027777777,0)" xlink:href="#ad"/><use transform="matrix(0.005425347222222222,0,0,0.005425347222222222,10.584852430555555,0)" xlink:href="#aj"/><use transform="matrix(0.005425347222222222,0,0,0.005425347222222222,16.82400173611111,0)" xlink:href="#ab"/><use transform="matrix(0.005425347222222222,0,0,0.005425347222222222,19.514973958333332,0)" xlink:href="#ac"/><use transform="matrix(0.005425347222222222,0,0,0.005425347222222222,22.205946180555554,0)" xlink:href="#aF"/><use transform="matrix(0.005425347222222222,0,0,0.005425347222222222,28.34201388888889,0)" xlink:href="#aj"/><use transform="matrix(0.005425347222222222,0,0,0.005425347222222222,34.58116319444444,0)" xlink:href="#ag"/></g><path d="M158 418v-1536h174v179h20c37-59 106-193 324-193 279 0 474 222 474 576 0 356-194 580-473 580-213 0-288-135-325-197h-14v591H158zm492-555c209 0 317-186 317-421 0-232-105-413-317-413-206 0-314 166-314 413 0 249 111 421 314 421" id="aL"/><g id="y"><use transform="matrix(0.005425347222222222,0,0,0.005425347222222222,0,0)" xlink:href="#aL"/><use transform="matrix(0.005425347222222222,0,0,0.005425347222222222,6.803385416666666,0)" xlink:href="#ad"/><use transform="matrix(0.005425347222222222,0,0,0.005425347222222222,13.28125,0)" xlink:href="#ak"/><use transform="matrix(0.005425347222222222,0,0,0.005425347222222222,20.084635416666664,0)" xlink:href="#ac"/><use transform="matrix(0.005425347222222222,0,0,0.005425347222222222,22.77560763888889,0)" xlink:href="#ak"/><use transform="matrix(0.005425347222222222,0,0,0.005425347222222222,29.57899305555555,0)" xlink:href="#al"/><use transform="matrix(0.005425347222222222,0,0,0.005425347222222222,36.241319444444436,0)" xlink:href="#ai"/></g><g id="z"><use transform="matrix(0.005425347222222222,0,0,0.005425347222222222,0,0)" xlink:href="#ak"/><use transform="matrix(0.005425347222222222,0,0,0.005425347222222222,6.803385416666666,0)" xlink:href="#ad"/></g><g id="A"><use transform="matrix(0.005425347222222222,0,0,0.005425347222222222,0,0)" xlink:href="#ad"/><use transform="matrix(0.005425347222222222,0,0,0.005425347222222222,6.477864583333333,0)" xlink:href="#ai"/><use transform="matrix(0.005425347222222222,0,0,0.005425347222222222,12.342664930555555,0)" xlink:href="#af"/><use transform="matrix(0.005425347222222222,0,0,0.005425347222222222,16.031901041666664,0)" xlink:href="#aj"/><use transform="matrix(0.005425347222222222,0,0,0.005425347222222222,22.27105034722222,0)" xlink:href="#ai"/></g><path d="M140 405l46-156c120 36 205 19 263-150l32-93L54-1118h197c107 313 237 620 324 950 87-331 219-637 326-950h196L606 167c-68 178-176 259-334 259-64 0-113-12-132-21" id="aM"/><use transform="matrix(0.005425347222222222,0,0,0.005425347222222222,0,0)" xlink:href="#aM" id="B"/><g id="C"><use transform="matrix(0.005425347222222222,0,0,0.005425347222222222,0,0)" xlink:href="#aG"/><use transform="matrix(0.005425347222222222,0,0,0.005425347222222222,6.34765625,0)" xlink:href="#al"/><use transform="matrix(0.005425347222222222,0,0,0.005425347222222222,13.00998263888889,0)" xlink:href="#ae"/><use transform="matrix(0.005425347222222222,0,0,0.005425347222222222,19.57465277777778,0)" xlink:href="#ai"/><use transform="matrix(0.005425347222222222,0,0,0.005425347222222222,25.439453125,0)" xlink:href="#aE"/><use transform="matrix(0.005425347222222222,0,0,0.005425347222222222,32.009548611111114,0)" xlink:href="#ab"/><use transform="matrix(0.005425347222222222,0,0,0.005425347222222222,34.86328125,0)" xlink:href="#af"/><use transform="matrix(0.005425347222222222,0,0,0.005425347222222222,38.55251736111111,0)" xlink:href="#aj"/><use transform="matrix(0.005425347222222222,0,0,0.005425347222222222,44.791666666666664,0)" xlink:href="#ag"/><use transform="matrix(0.005425347222222222,0,0,0.005425347222222222,49.14822048611111,0)" xlink:href="#ab"/><use transform="matrix(0.005425347222222222,0,0,0.005425347222222222,51.83919270833333,0)" xlink:href="#al"/><use transform="matrix(0.005425347222222222,0,0,0.005425347222222222,58.50151909722222,0)" xlink:href="#ai"/></g><path d="M537 14c-226 0-379-139-379-422v-710h180v695c0 172 97 275 253 275 160 0 281-109 281-300v-670h181V0H879v-209C806-46 684 14 537 14zm-11-1278l140-294h201l-194 294H526" id="aN"/><g id="D"><use transform="matrix(0.005425347222222222,0,0,0.005425347222222222,0,0)" xlink:href="#ai"/><use transform="matrix(0.005425347222222222,0,0,0.005425347222222222,5.864800347222222,0)" xlink:href="#ad"/><use transform="matrix(0.005425347222222222,0,0,0.005425347222222222,12.342664930555555,0)" xlink:href="#ah"/><use transform="matrix(0.005425347222222222,0,0,0.005425347222222222,19.156901041666664,0)" xlink:href="#aN"/><use transform="matrix(0.005425347222222222,0,0,0.005425347222222222,25.72699652777778,0)" xlink:href="#ae"/></g><g id="E"><use transform="matrix(0.005425347222222222,0,0,0.005425347222222222,0,0)" xlink:href="#aE"/><use transform="matrix(0.005425347222222222,0,0,0.005425347222222222,6.570095486111111,0)" xlink:href="#ae"/></g><g id="F"><use transform="matrix(0.005425347222222222,0,0,0.005425347222222222,0,0)" xlink:href="#aE"/><use transform="matrix(0.005425347222222222,0,0,0.005425347222222222,6.570095486111111,0)" xlink:href="#ai"/><use transform="matrix(0.005425347222222222,0,0,0.005425347222222222,12.434895833333332,0)" xlink:href="#aE"/><use transform="matrix(0.005425347222222222,0,0,0.005425347222222222,19.004991319444443,0)" xlink:href="#aj"/><use transform="matrix(0.005425347222222222,0,0,0.005425347222222222,25.244140625,0)" xlink:href="#ag"/><use transform="matrix(0.005425347222222222,0,0,0.005425347222222222,29.600694444444443,0)" xlink:href="#ac"/><use transform="matrix(0.005425347222222222,0,0,0.005425347222222222,32.291666666666664,0)" xlink:href="#al"/></g><path fill="#333" d="M783 20c-382 0-661-292-661-764 0-473 279-766 661-766 302 0 548 182 601 489h-190c-42-204-217-313-411-313-268 0-476 208-476 590 0 381 209 588 476 588 195 0 369-110 411-313h190c-52 303-296 489-601 489" id="aO"/><path fill="#333" d="M613 24c-304 0-509-231-509-576 0-350 205-580 509-580 305 0 511 230 511 580 0 345-206 576-511 576zm0-161c226 0 329-195 329-415 0-222-103-419-329-419-223 0-326 196-326 419 0 220 103 415 326 415" id="aP"/><path fill="#333" d="M338-670V0H158v-1118h173l1 207c72-158 192-221 342-221 226 0 378 139 378 422V0H872v-695c0-172-96-275-252-275-161 0-282 109-282 300" id="aQ"/><path fill="#333" d="M538 24C308 24 148-78 108-271l171-41c32 123 123 178 257 178 156 0 256-77 256-169 0-77-54-128-164-154l-186-44c-203-48-300-148-300-305 0-192 176-326 414-326 230 0 351 112 402 269l-163 42c-31-80-94-158-238-158-133 0-233 69-233 162 0 83 57 129 188 160l169 40c203 48 298 149 298 302 0 196-179 339-441 339" id="aR"/><path fill="#333" d="M537 14c-226 0-379-139-379-422v-710h180v695c0 172 97 275 253 275 160 0 281-109 281-300v-670h181V0H879v-209C806-46 684 14 537 14" id="aS"/><path fill="#333" d="M338-1490V0H158v-1490h180" id="aT"/><path fill="#333" d="M598-1118v154H368v674c0 100 37 144 132 144 23 0 62-6 92-12L629-6c-37 13-88 20-134 20-193 0-307-107-307-290v-688H20v-154h168v-266h180v266h230" id="aU"/><path fill="#333" d="M471 26C259 26 90-98 90-318c0-256 228-303 435-329 202-27 287-16 287-108 0-139-79-219-234-219-161 0-248 86-283 164l-173-57c86-203 278-265 451-265 150 0 419 46 419 395V0H815v-152h-12C765-73 660 26 471 26zm31-159c199 0 310-134 310-271v-155c-30 35-226 55-295 64-131 17-246 59-246 186 0 116 97 176 231 176" id="aV"/><path fill="#333" d="M128 359l88-567h206L266 359H128" id="aW"/><g id="G"><use transform="matrix(0.006510416666666667,0,0,0.006510416666666667,0,0)" xlink:href="#aO"/><use transform="matrix(0.006510416666666667,0,0,0.006510416666666667,9.739583333333334,0)" xlink:href="#aP"/><use transform="matrix(0.006510416666666667,0,0,0.006510416666666667,17.734375,0)" xlink:href="#aQ"/><use transform="matrix(0.006510416666666667,0,0,0.006510416666666667,25.611979166666668,0)" xlink:href="#aR"/><use transform="matrix(0.006510416666666667,0,0,0.006510416666666667,32.649739583333336,0)" xlink:href="#aS"/><use transform="matrix(0.006510416666666667,0,0,0.006510416666666667,40.53385416666667,0)" xlink:href="#aT"/><use transform="matrix(0.006510416666666667,0,0,0.006510416666666667,43.958333333333336,0)" xlink:href="#aU"/><use transform="matrix(0.006510416666666667,0,0,0.006510416666666667,48.385416666666664,0)" xlink:href="#aV"/><use transform="matrix(0.006510416666666667,0,0,0.006510416666666667,55.87239583333332,0)" xlink:href="#aW"/></g><path fill="#333" d="M481 0L54-1118h197c107 314 236 620 325 951 87-331 217-637 324-951h197L670 0H481" id="aX"/><path fill="#333" d="M158 0v-1118h180V0H158zm91-1301c-68 0-125-53-125-119s57-119 125-119c69 0 126 53 126 119s-57 119-126 119" id="aY"/><path fill="#333" d="M126 0v-134l627-806v-11H146v-167h839v143L376-178v11h629V0H126" id="aZ"/><g id="H"><use transform="matrix(0.006510416666666667,0,0,0.006510416666666667,0,0)" xlink:href="#aX"/><use transform="matrix(0.006510416666666667,0,0,0.006510416666666667,7.493489583333334,0)" xlink:href="#aY"/><use transform="matrix(0.006510416666666667,0,0,0.006510416666666667,10.72265625,0)" xlink:href="#aR"/><use transform="matrix(0.006510416666666667,0,0,0.006510416666666667,17.760416666666668,0)" xlink:href="#aS"/><use transform="matrix(0.006510416666666667,0,0,0.006510416666666667,25.64453125,0)" xlink:href="#aV"/><use transform="matrix(0.006510416666666667,0,0,0.006510416666666667,33.131510416666664,0)" xlink:href="#aT"/><use transform="matrix(0.006510416666666667,0,0,0.006510416666666667,36.36067708333333,0)" xlink:href="#aY"/><use transform="matrix(0.006510416666666667,0,0,0.006510416666666667,39.58984374999999,0)" xlink:href="#aZ"/><use transform="matrix(0.006510416666666667,0,0,0.006510416666666667,46.95312499999999,0)" xlink:href="#aV"/></g><path fill="#333" d="M140 405l46-156c120 36 205 19 263-150l32-93L54-1118h197c107 313 237 620 324 950 87-331 219-637 326-950h196L606 167c-68 178-176 259-334 259-64 0-113-12-132-21" id="ba"/><use transform="matrix(0.006510416666666667,0,0,0.006510416666666667,0,0)" xlink:href="#ba" id="I"/><path fill="#333" d="M158 0v-1118h174v172h12c41-113 157-188 290-188 26 0 70 2 91 3v181c-11-2-60-10-108-10-161 0-279 109-279 260V0H158" id="bb"/><path fill="#333" d="M628 24c-324 0-524-230-524-574 0-343 198-582 503-582 237 0 487 146 487 559v75H286c9 234 145 362 343 362 132 0 231-58 273-172l174 48C1024-91 857 24 628 24zM287-650h624c-17-190-120-322-304-322-192 0-309 151-320 322" id="bc"/><g id="J"><use transform="matrix(0.006510416666666667,0,0,0.006510416666666667,0,0)" xlink:href="#bb"/><use transform="matrix(0.006510416666666667,0,0,0.006510416666666667,4.798177083333333,0)" xlink:href="#bc"/><use transform="matrix(0.006510416666666667,0,0,0.006510416666666667,12.701822916666666,0)" xlink:href="#aV"/><use transform="matrix(0.006510416666666667,0,0,0.006510416666666667,20.188802083333332,0)" xlink:href="#aT"/><use transform="matrix(0.006510416666666667,0,0,0.006510416666666667,23.41796875,0)" xlink:href="#aY"/><use transform="matrix(0.006510416666666667,0,0,0.006510416666666667,26.647135416666668,0)" xlink:href="#aZ"/><use transform="matrix(0.006510416666666667,0,0,0.006510416666666667,34.01041666666667,0)" xlink:href="#aV"/></g><path fill="#333" d="M158 418v-1536h174v179h20c37-59 106-193 324-193 279 0 474 222 474 576 0 356-194 580-473 580-213 0-288-135-325-197h-14v591H158zm492-555c209 0 317-186 317-421 0-232-105-413-317-413-206 0-314 166-314 413 0 249 111 421 314 421" id="bd"/><path fill="#333" d="M577 24c-279 0-473-224-473-580 0-354 195-576 474-576 218 0 287 134 324 193h14v-551h180V0H922v-173h-20C865-111 790 24 577 24zm27-161c203 0 314-172 314-421 0-247-108-413-314-413-212 0-317 181-317 413 0 235 108 421 317 421" id="be"/><g id="K"><use transform="matrix(0.006510416666666667,0,0,0.006510416666666667,0,0)" xlink:href="#bd"/><use transform="matrix(0.006510416666666667,0,0,0.006510416666666667,8.1640625,0)" xlink:href="#bc"/><use transform="matrix(0.006510416666666667,0,0,0.006510416666666667,15.9375,0)" xlink:href="#be"/><use transform="matrix(0.006510416666666667,0,0,0.006510416666666667,24.1015625,0)" xlink:href="#aY"/><use transform="matrix(0.006510416666666667,0,0,0.006510416666666667,27.330729166666668,0)" xlink:href="#be"/><use transform="matrix(0.006510416666666667,0,0,0.006510416666666667,35.49479166666667,0)" xlink:href="#aP"/><use transform="matrix(0.006510416666666667,0,0,0.006510416666666667,43.489583333333336,0)" xlink:href="#aR"/></g><path d="M659 0H135v-1490h529c448 0 721 280 721 744 0 466-273 746-726 746zM440-263h204c287 0 437-148 437-483 0-333-150-481-435-481H440v964" id="bf"/><path d="M625 442c-280 0-454-114-503-274l258-72c28 63 97 128 243 128 153 0 246-69 246-216v-206h-23C805-108 717-16 536-16 284-16 81-191 81-561c0-378 208-571 456-571 188 0 280 113 321 202h13v-188h295V-9c0 303-226 451-541 451zm5-686c153 0 240-119 240-319 0-198-86-329-240-329-158 0-241 137-241 329 0 195 85 319 241 319" id="bg"/><g id="L"><use transform="matrix(0.010850694444444444,0,0,0.010850694444444444,0,0)" xlink:href="#bf"/><use transform="matrix(0.010850694444444444,0,0,0.010850694444444444,16.048177083333332,0)" xlink:href="#T"/><use transform="matrix(0.010850694444444444,0,0,0.010850694444444444,22.0703125,0)" xlink:href="#R"/><use transform="matrix(0.010850694444444444,0,0,0.010850694444444444,34.97178819444444,0)" xlink:href="#bg"/><use transform="matrix(0.010850694444444444,0,0,0.010850694444444444,49.01258680555556,0)" xlink:href="#S"/><use transform="matrix(0.010850694444444444,0,0,0.010850694444444444,57.75824652777778,0)" xlink:href="#R"/><use transform="matrix(0.010850694444444444,0,0,0.010850694444444444,70.65972222222223,0)" xlink:href="#ax"/><use transform="matrix(0.010850694444444444,0,0,0.010850694444444444,90.93967013888889,0)" xlink:href="#R"/></g><g id="M"><use transform="matrix(0.010850694444444444,0,0,0.010850694444444444,0,0)" xlink:href="#ay"/><use transform="matrix(0.010850694444444444,0,0,0.010850694444444444,14.008246527777777,0)" xlink:href="#X"/></g><path d="M786 20C389 20 94-260 94-744c0-487 299-766 692-766 339 0 597 194 641 529h-309c-28-162-156-258-326-258-233 0-388 179-388 495 0 323 157 493 387 493 170 0 298-97 328-259h309c-34 277-266 530-642 530" id="bh"/><path d="M42 0l360-574-338-544h324c72 124 151 261 209 394 58-134 140-271 215-394h318L785-570 1146 0H824c-79-136-169-280-234-425C528-278 439-134 360 0H42" id="bi"/><g id="N"><use transform="matrix(0.010850694444444444,0,0,0.010850694444444444,0,0)" xlink:href="#bh"/><use transform="matrix(0.010850694444444444,0,0,0.010850694444444444,16.438802083333332,0)" xlink:href="#U"/><use transform="matrix(0.010850694444444444,0,0,0.010850694444444444,30.067274305555554,0)" xlink:href="#Y"/><use transform="matrix(0.010850694444444444,0,0,0.010850694444444444,43.90190972222222,0)" xlink:href="#aw"/><use transform="matrix(0.010850694444444444,0,0,0.010850694444444444,51.82291666666667,0)" xlink:href="#X"/><use transform="matrix(0.010850694444444444,0,0,0.010850694444444444,64.61588541666667,0)" xlink:href="#bi"/><use transform="matrix(0.010850694444444444,0,0,0.010850694444444444,77.82118055555556,0)" xlink:href="#aw"/><use transform="matrix(0.010850694444444444,0,0,0.010850694444444444,85.7421875,0)" xlink:href="#U"/></g></defs></g></svg>